<svg xmlns="http://www.w3.org/2000/svg" width="72" height="43" viewBox="0 0 72 43">
  <g id="Group_4839" data-name="Group 4839" transform="translate(-624.482 -1122.657)">
    <path id="Path_13607" data-name="Path 13607" d="M.982.657H11.6c2.82,0,3.866,2.271,4.737,3.5l6.155,10.378a3.791,3.791,0,0,0,2.8,1.816l4.941.816A5.19,5.19,0,0,1,34.335,22.1v8.065c0,3.037-1.7,3.6-3.159,3.6H21.37" transform="translate(623.5 1123.5)" fill="none" stroke="#ad5cff" stroke-linejoin="round" stroke-width="3"/>
    <path id="Path_13608" data-name="Path 13608" d="M.982.657H11.6" transform="translate(623.5 1139.671)" fill="none" stroke="#ad5cff" stroke-linejoin="round" stroke-width="3"/>
    <path id="Path_13609" data-name="Path 13609" d="M.982.657H7.089" transform="translate(623.5 1155.532)" fill="none" stroke="#ad5cff" stroke-linejoin="round" stroke-width="3"/>
    <circle id="Ellipse_692" data-name="Ellipse 692" cx="7.467" cy="7.467" r="7.467" transform="translate(630.589 1149.224)" fill="none" stroke="#ad5cff" stroke-width="3"/>
    <path id="Path_13607-2" data-name="Path 13607" d="M33.335.657H22.721c-2.82,0-3.866,2.271-4.737,3.5L11.829,14.539a3.791,3.791,0,0,1-2.8,1.816l-4.941.816A5.19,5.19,0,0,0-.018,22.1v8.065c0,3.037,1.7,3.6,3.159,3.6h9.806" transform="translate(663.148 1123.5)" fill="none" stroke="#ad5cff" stroke-linejoin="round" stroke-width="3"/>
    <path id="Path_13608-2" data-name="Path 13608" d="M10.6.657H-.018" transform="translate(685.886 1139.671)" fill="none" stroke="#ad5cff" stroke-linejoin="round" stroke-width="3"/>
    <path id="Path_13610" data-name="Path 13610" d="M-.018,7.515V.657" transform="translate(660.709 1125.651)" fill="none" stroke="#ad5cff" stroke-linejoin="round" stroke-width="3"/>
    <path id="Path_13611" data-name="Path 13611" d="M-.018,11.4,5.534,7.577" transform="translate(666.547 1122.911)" fill="none" stroke="#ad5cff" stroke-linejoin="round" stroke-width="3"/>
    <path id="Path_13612" data-name="Path 13612" d="M5.534,11.4-.018,7.577" transform="translate(649.691 1122.911)" fill="none" stroke="#ad5cff" stroke-linejoin="round" stroke-width="3"/>
    <path id="Path_13609-2" data-name="Path 13609" d="M6.089.657H-.018" transform="translate(690.394 1155.532)" fill="none" stroke="#ad5cff" stroke-linejoin="round" stroke-width="3"/>
    <circle id="Ellipse_692-2" data-name="Ellipse 692" cx="7.467" cy="7.467" r="7.467" transform="translate(675.443 1149.224)" fill="none" stroke="#ad5cff" stroke-width="3"/>
  </g>
</svg>
