<svg xmlns="http://www.w3.org/2000/svg" width="135.064" height="35.296" viewBox="0 0 135.064 35.296">
  <g id="ქართ-01" transform="translate(0 0)">
    <g id="Group_5" data-name="Group 5" transform="translate(43.441 4.525)">
      <g id="Group_1" data-name="Group 1" transform="translate(0 0)">
        <path id="Path_28" data-name="Path 28" d="M442.424,152.5a5.163,5.163,0,0,0-.323,1.435v1.18a7.2,7.2,0,0,0,.178,1.692,3.1,3.1,0,0,0,.578,1.231,2.494,2.494,0,0,0,1.045.752,4.347,4.347,0,0,0,1.6.257,4.459,4.459,0,0,0,1.522-.231,2.342,2.342,0,0,0,1.054-.752,3.463,3.463,0,0,0,.62-1.35,8.606,8.606,0,0,0,.2-2.025V152.9a5.928,5.928,0,0,0-.289-1.889,7.937,7.937,0,0,0-.748-1.616,10.2,10.2,0,0,0-1.054-1.427q-.6-.674-1.206-1.324-.7-.735-1.36-1.5a11.6,11.6,0,0,1-1.181-1.616,8.382,8.382,0,0,1-.833-1.863,7.5,7.5,0,0,1-.314-2.239V136.66h3.773v2.769a3.93,3.93,0,0,0,.247,1.393,6.061,6.061,0,0,0,.663,1.273,11.248,11.248,0,0,0,.952,1.213q.535.6,1.1,1.213V144.5q.766.821,1.513,1.684a12.836,12.836,0,0,1,1.343,1.871,10.558,10.558,0,0,1,.969,2.2,8.761,8.761,0,0,1,.374,2.64v1.9q0,7.9-7.343,7.9a7.793,7.793,0,0,1-3.187-.607,6.53,6.53,0,0,1-2.294-1.657,7.053,7.053,0,0,1-1.394-2.436,9.187,9.187,0,0,1-.468-2.957v-1.094a4.444,4.444,0,0,1,.17-1.17,7.727,7.727,0,0,1,.476-1.273" transform="translate(-438.16 -136.66)" fill="#5d5e69"/>
      </g>
      <g id="Group_2" data-name="Group 2" transform="translate(17.199 0)">
        <path id="Path_29" data-name="Path 29" d="M653.947,152.4a13.581,13.581,0,0,0,1.4-2.066,11.128,11.128,0,0,0,.887-2.066,6.142,6.142,0,0,0,.31-1.776V144.51a7.017,7.017,0,0,0-.192-1.725,3.954,3.954,0,0,0-.536-1.255,2.385,2.385,0,0,0-.8-.76,1.986,1.986,0,0,0-.98-.256,2.974,2.974,0,0,0-1.366.273,2.071,2.071,0,0,0-.829.76,3.13,3.13,0,0,0-.411,1.136,8.469,8.469,0,0,0-.109,1.4v4.764H647.6v-4.764a10.486,10.486,0,0,0-.092-1.409,3.891,3.891,0,0,0-.343-1.187,1.927,1.927,0,0,0-1.892-1.127,1.915,1.915,0,0,0-1.114.307,2.235,2.235,0,0,0-.712.819,4.038,4.038,0,0,0-.385,1.161,7.467,7.467,0,0,0-.117,1.332v4.867h-3.753V143.98q0-.666-.058-1.3a2.957,2.957,0,0,0-.31-1.11,1.873,1.873,0,0,0-.779-.768,3.064,3.064,0,0,0-1.466-.29,1.917,1.917,0,0,0-1.172.358,2.764,2.764,0,0,0-.8.973,4.959,4.959,0,0,0-.461,1.443,10.465,10.465,0,0,0-.142,1.768l.034,2.186a8.51,8.51,0,0,0,.553,3.159,9.412,9.412,0,0,0,1.616,2.724,12.108,12.108,0,0,0,2.5,2.22,16.192,16.192,0,0,0,3.225,1.665,20.315,20.315,0,0,0,3.786,1.042,23.847,23.847,0,0,0,4.18.358h3.082v3.962h-3.014a27.4,27.4,0,0,1-5.906-.6,22.6,22.6,0,0,1-4.9-1.648,17.386,17.386,0,0,1-3.861-2.484,15.821,15.821,0,0,1-2.806-3.116,13.8,13.8,0,0,1-1.734-3.535,12.9,12.9,0,0,1-.628-3.731l-.017-2.288a13.017,13.017,0,0,1,.377-3.21,7.549,7.549,0,0,1,1.164-2.579,5.544,5.544,0,0,1,2.01-1.716,6.347,6.347,0,0,1,2.914-.623,5.591,5.591,0,0,1,1.374.162,4.111,4.111,0,0,1,1.189.512,5.493,5.493,0,0,1,1.047.871,8.849,8.849,0,0,1,.963,1.238,6.568,6.568,0,0,1,1.725-2.169,3.787,3.787,0,0,1,2.4-.769,3.915,3.915,0,0,1,2.387.76,6.937,6.937,0,0,1,1.834,2.143,7.164,7.164,0,0,1,2.136-2.058,4.592,4.592,0,0,1,2.37-.692,6.5,6.5,0,0,1,2.538.5,5.765,5.765,0,0,1,2.052,1.451,6.932,6.932,0,0,1,1.374,2.356,9.468,9.468,0,0,1,.5,3.21v2.288a7.34,7.34,0,0,1-.2,1.605,13.086,13.086,0,0,1-.569,1.836,16.327,16.327,0,0,1-.9,1.912,15.98,15.98,0,0,1-1.164,1.827,5.821,5.821,0,0,1-.9,1.11" transform="translate(-630.11 -136.69)" fill="#5d5e69"/>
      </g>
      <g id="Group_3" data-name="Group 3" transform="translate(51.094 0)">
        <path id="Path_30" data-name="Path 30" d="M1019.545,155.957a5.924,5.924,0,0,1-.713,2.957,6.053,6.053,0,0,1-1.986,2.1,9.459,9.459,0,0,1-3.022,1.256,16.313,16.313,0,0,1-3.8.419q-1.308,0-2.547-.111a14.114,14.114,0,0,1-2.344-.4,8.761,8.761,0,0,1-2.029-.8,5.538,5.538,0,0,1-1.6-1.324,5.816,5.816,0,0,1-1.036-1.957,8.6,8.6,0,0,1-.348-2.7l3.889.769a2.828,2.828,0,0,0,.263,1.3,2.311,2.311,0,0,0,.713.837,3.086,3.086,0,0,0,1.053.479,7.992,7.992,0,0,0,1.273.214q.67.06,1.366.06h1.342a13.9,13.9,0,0,0,2.1-.154,6.582,6.582,0,0,0,1.783-.512,3.293,3.293,0,0,0,1.239-.958,2.318,2.318,0,0,0,.467-1.47v-.837a6.892,6.892,0,0,0-.093-1.077,4.155,4.155,0,0,0-.322-1.077,2.4,2.4,0,0,0-.619-.829,1.492,1.492,0,0,0-1-.333h-1.443v-3.641h1.443a1.9,1.9,0,0,0,1.079-.3,2.429,2.429,0,0,0,.739-.777,3.81,3.81,0,0,0,.433-1.085,5.29,5.29,0,0,0,.144-1.222v-.82a11.433,11.433,0,0,0-.093-1.546,2.7,2.7,0,0,0-.4-1.137,1.9,1.9,0,0,0-.883-.7,4.067,4.067,0,0,0-1.528-.239,2.173,2.173,0,0,0-2.021,1.162,4.161,4.161,0,0,0-.441,1.3,9.132,9.132,0,0,0-.136,1.624v1.692a10.435,10.435,0,0,1-.425,3.043,6.735,6.735,0,0,1-1.29,2.427,5.915,5.915,0,0,1-2.2,1.607,8.65,8.65,0,0,1-6.121.042,5.908,5.908,0,0,1-2.2-1.538,6.657,6.657,0,0,1-1.35-2.41,10.23,10.23,0,0,1-.458-3.17v-1.47a11.031,11.031,0,0,1,.5-3.495,6.877,6.877,0,0,1,1.417-2.5,5.751,5.751,0,0,1,2.207-1.5,8.265,8.265,0,0,1,4.22-.377,6.272,6.272,0,0,1,1.341.393,5.5,5.5,0,0,1,1.257.744,5.989,5.989,0,0,1,1.112,1.154,5.207,5.207,0,0,1,1.036-1.222,4.93,4.93,0,0,1,1.154-.734,4.72,4.72,0,0,1,1.2-.359,7.73,7.73,0,0,1,1.2-.094,8.572,8.572,0,0,1,3.073.5,5.493,5.493,0,0,1,2.131,1.419,5.813,5.813,0,0,1,1.248,2.256,10.275,10.275,0,0,1,.407,3.008v.769a11.2,11.2,0,0,1-.093,1.4,5.77,5.77,0,0,1-.374,1.435,5.231,5.231,0,0,1-.806,1.35,5.055,5.055,0,0,1-1.409,1.162,4.27,4.27,0,0,1,1.257,1.051,4.546,4.546,0,0,1,.7,1.248,5.3,5.3,0,0,1,.3,1.35q.06.692.059,1.359v.99ZM1006.5,144.642a9.219,9.219,0,0,0-.195-2.06,3.462,3.462,0,0,0-.585-1.333,2.1,2.1,0,0,0-.968-.709,4.012,4.012,0,0,0-1.342-.2,4.449,4.449,0,0,0-1.333.179,1.989,1.989,0,0,0-.959.658,3.213,3.213,0,0,0-.586,1.316,9.758,9.758,0,0,0-.195,2.153v1.47a8.424,8.424,0,0,0,.186,1.957,2.872,2.872,0,0,0,.569,1.205,1.972,1.972,0,0,0,.959.615,4.813,4.813,0,0,0,1.358.171,4.078,4.078,0,0,0,1.512-.239,2.066,2.066,0,0,0,.943-.734,3.183,3.183,0,0,0,.492-1.231,9.188,9.188,0,0,0,.144-1.743v-1.471Z" transform="translate(-996.42 -136.66)" fill="#5d5e69"/>
      </g>
      <g id="Group_4" data-name="Group 4" transform="translate(76.937 0)">
        <path id="Path_31" data-name="Path 31" d="M1288.246,152.5a5.174,5.174,0,0,0-.322,1.435v1.18a7.18,7.18,0,0,0,.178,1.692,3.094,3.094,0,0,0,.578,1.231,2.489,2.489,0,0,0,1.045.752,4.349,4.349,0,0,0,1.6.257,4.458,4.458,0,0,0,1.521-.231,2.342,2.342,0,0,0,1.054-.752,3.462,3.462,0,0,0,.62-1.35,8.585,8.585,0,0,0,.2-2.025V152.9a5.911,5.911,0,0,0-.289-1.889,7.932,7.932,0,0,0-.748-1.616,10.193,10.193,0,0,0-1.054-1.427q-.595-.674-1.206-1.324-.7-.735-1.36-1.5a11.556,11.556,0,0,1-1.181-1.616,8.372,8.372,0,0,1-.833-1.863,7.5,7.5,0,0,1-.314-2.239V136.66h3.774v2.769a3.931,3.931,0,0,0,.247,1.393,6.1,6.1,0,0,0,.663,1.273,11.331,11.331,0,0,0,.952,1.213q.535.6,1.1,1.213V144.5q.766.821,1.513,1.684a12.875,12.875,0,0,1,1.344,1.871,10.574,10.574,0,0,1,.969,2.2,8.8,8.8,0,0,1,.373,2.64v1.9q0,7.9-7.343,7.9a7.8,7.8,0,0,1-3.188-.607,6.54,6.54,0,0,1-2.294-1.657,7.046,7.046,0,0,1-1.394-2.436,9.166,9.166,0,0,1-.468-2.957v-1.094a4.422,4.422,0,0,1,.17-1.17,7.776,7.776,0,0,1,.476-1.273" transform="translate(-1283.981 -136.66)" fill="#5d5e69"/>
      </g>
    </g>
    <g id="Group_7" data-name="Group 7" transform="translate(0 0)">
      <path id="Path_50" data-name="Path 50" d="M81.248,166.746H65.6a11.932,11.932,0,0,1-1.506-.094c-3.624-.47-6.463-4.217-6.463-8.53V139.68a8.1,8.1,0,0,1,5.078-7.747,6.633,6.633,0,0,1,2.276-.482H95.641l-7.295,28.638a11.023,11.023,0,0,1-1.217,2.968,7.377,7.377,0,0,1-4.9,3.612A5.766,5.766,0,0,1,81.248,166.746ZM65,135.346a3.85,3.85,0,0,0-1.25.3,4.247,4.247,0,0,0-2.711,4.038v18.443c0,2.322,1.543,4.412,3.439,4.658a8.742,8.742,0,0,0,1.126.068H81.249a2.738,2.738,0,0,0,.5-.038,4.051,4.051,0,0,0,2.595-1.993,7.02,7.02,0,0,0,.748-1.873l6.011-23.6Z" transform="translate(-57.63 -131.45)" fill="#ff466a"/>
    </g>
  </g>
</svg>
