<svg xmlns="http://www.w3.org/2000/svg" width="94" height="30" viewBox="0 0 94 30">
  <g id="Group_4814" data-name="Group 4814" transform="translate(-366.885 -189.801)">
    <rect id="Rectangle_2222" data-name="Rectangle 2222" width="30.645" height="30" transform="translate(366.885 189.801)" fill="#007960"/>
    <path id="Path_13586" data-name="Path 13586" d="M113.2,147.713a10.28,10.28,0,0,0-6.258,6.937h-3.5a8.317,8.317,0,0,1,8.231-7.08A8.068,8.068,0,0,1,113.2,147.713Z" transform="translate(269.517 60.022)" fill="#fff"/>
    <path id="Path_13587" data-name="Path 13587" d="M51.591,33.811H47.459L40.13,17.826l1.92-4.236Z" transform="translate(340.063 180.718)" fill="#fff"/>
    <path id="Path_13588" data-name="Path 13588" d="M336.813,109.13A5.733,5.733,0,0,0,331,114.748v13.259h1.456a1.233,1.233,0,0,0,1.254-1.212V114.706a3.112,3.112,0,0,1,6.211,0v12.083A1.237,1.237,0,0,0,341.177,128h1.456V114.748a5.72,5.72,0,0,0-5.81-5.618Z" transform="translate(118.252 86.215)" fill="#3d4543"/>
    <path id="Path_13589" data-name="Path 13589" d="M257.407,121.594v6.413h-1.074a1.661,1.661,0,0,1-1.156-.461,1.552,1.552,0,0,1-.479-1.117v-4.836a3.063,3.063,0,0,0-3.107-3.011h-.146a4.968,4.968,0,0,0-2.958,1.132v6.715a1.552,1.552,0,0,1-.483,1.12,1.661,1.661,0,0,1-1.162.458H245.77V109.13h.846a1.84,1.84,0,0,1,1.867,1.812v5.871l.415-.208a5.979,5.979,0,0,1,5.714.168A5.578,5.578,0,0,1,257.407,121.594Z" transform="translate(174.93 86.215)" fill="#3d4543"/>
    <path id="Path_13590" data-name="Path 13590" d="M210.544,122.185a3.116,3.116,0,0,1-6.231,0h0v-2.958a1.743,1.743,0,0,0-1.768-1.713h-.935v4.671a5.818,5.818,0,0,0,11.633,0V119.2c0-5.73-2.839-7.346-6.662-9.778-.56-.356-.809-.507-1.081-.674v2.024c0,.818.385,1.19,1.141,1.752,2.653,1.963,3.9,2.855,3.9,6.676Z" transform="translate(204.294 86.47)" fill="#3d4543"/>
    <path id="Path_13591" data-name="Path 13591" d="M294.592,109.13a6.056,6.056,0,0,0-4.226,1.663,5.662,5.662,0,0,0-1.766,4.069v2.851c0,5.735,2.835,7.352,6.656,9.78l1.078.674v-2.018c0-.824-.381-1.2-1.131-1.758-1.681-1.235-2.792-2.05-3.383-3.435a6.441,6.441,0,0,0,2.653.683,5.772,5.772,0,0,0,5.9-5.632v-1.254a5.761,5.761,0,0,0-5.777-5.623Zm3.071,6.919v.17a3.064,3.064,0,0,1-3.177,2.842,5.174,5.174,0,0,1-3.177-1.135v-3.208a3.179,3.179,0,0,1,6.354,0Z" transform="translate(146.59 86.216)" fill="#3d4543"/>
  </g>
</svg>
