<svg id="Component_35_1" data-name="Component 35 – 1" xmlns="http://www.w3.org/2000/svg" width="54.805" height="54.931" viewBox="0 0 54.805 54.931">
  <g id="Group_8635" data-name="Group 8635" transform="translate(5.211 11.512)">
    <g id="Union_26" data-name="Union 26" transform="translate(40.133 37.043) rotate(180)" fill="#fff" stroke-linejoin="round">
      <path d="M 23.9219856262207 35.5431022644043 L 11.96099662780762 35.5431022644043 C 10.54343605041504 35.5431022644043 9.318316459655762 35.17858123779297 8.319665908813477 34.45967102050781 C 7.502166271209717 33.87117004394531 6.808906555175781 33.03269195556641 6.259146213531494 31.96753120422363 C 5.255926132202148 30.02380180358887 5.08548641204834 28.00682067871094 5.083876132965088 27.98668098449707 L 5.080946445465088 27.94709205627441 L 5.076216220855713 27.91168022155762 L 1.703711032867432 1.500001072883606 L 34.17926025390625 1.500001072883606 L 30.8067569732666 27.91168022155762 L 30.80061721801758 27.95979118347168 L 30.7975959777832 28.00819206237793 C 30.79648590087891 28.02421188354492 30.64968681335449 30.03663063049316 29.66010665893555 31.97481155395508 C 29.11827659606934 33.0360221862793 28.42837715148926 33.8715705871582 27.60957717895508 34.4582405090332 C 26.6048755645752 35.1781005859375 25.36419677734375 35.5431022644043 23.9219856262207 35.5431022644043 Z" stroke="none"/>
      <path d="M 3.407424926757812 3 L 6.564136505126953 27.7216911315918 C 6.571878433227539 27.7823600769043 6.57568359375 27.81282424926758 6.579519271850586 27.87110137939453 C 6.592134475708008 28.00247192382812 6.772165298461914 29.72782325744629 7.625856399536133 31.34427070617676 C 8.598285675048828 33.18553161621094 9.975795745849609 34.0431022644043 11.96098709106445 34.0431022644043 L 23.9219856262207 34.0431022644043 C 25.94429588317871 34.0431022644043 27.33237648010254 33.18992233276367 28.29037666320801 31.35809135437012 C 29.1297664642334 29.7530574798584 29.2898120880127 28.03736877441406 29.30097579956055 27.90573120117188 C 29.30476951599121 27.83525848388672 29.30957412719727 27.79421997070312 29.3188362121582 27.7216911315918 L 32.47554779052734 3 L 3.407424926757812 3 M -3.814697265625e-06 0 L 35.88297653198242 0 L 32.294677734375 28.10167121887207 C 32.294677734375 28.10167121887207 31.73637580871582 37.0431022644043 23.9219856262207 37.0431022644043 L 11.96098709106445 37.0431022644043 C 4.251996994018555 37.0431022644043 3.588294982910156 28.10167121887207 3.588294982910156 28.10167121887207 L -3.814697265625e-06 0 Z" stroke="none" fill="#7948ce"/>
    </g>
    <g id="Rectangle_3943" data-name="Rectangle 3943" transform="translate(44.384 43.419) rotate(180)" fill="#fff" stroke="#7948ce" stroke-width="3">
      <path d="M0,0H44.384a0,0,0,0,1,0,0V11.508a2,2,0,0,1-2,2H2a2,2,0,0,1-2-2V0A0,0,0,0,1,0,0Z" stroke="none"/>
      <path d="M3,1.5H41.384a1.5,1.5,0,0,1,1.5,1.5v8.508a.5.5,0,0,1-.5.5H2a.5.5,0,0,1-.5-.5V3A1.5,1.5,0,0,1,3,1.5Z" fill="none"/>
    </g>
  </g>
  <g id="Group_8637" data-name="Group 8637" transform="matrix(0.996, -0.087, 0.087, 0.996, 33.756, 22.839)">
    <path id="Path_17610" data-name="Path 17610" d="M0,7.813V0" transform="translate(0 5.667)" fill="none" stroke="#7948ce" stroke-linejoin="round" stroke-width="3"/>
    <path id="Path_17611" data-name="Path 17611" d="M0,2.935V0" transform="translate(0 0)" fill="none" stroke="#7948ce" stroke-linejoin="round" stroke-width="3"/>
  </g>
  <path id="Path_17605" data-name="Path 17605" d="M13.326-5.049v-7.719" transform="translate(14.076 12.768)" fill="none" stroke="#7948ce" stroke-linejoin="round" stroke-width="3"/>
  <path id="Path_17607" data-name="Path 17607" d="M0,0,.03,2.869.1,9.182" transform="translate(12.928 12.336) rotate(130)" fill="none" stroke="#7948ce" stroke-linejoin="round" stroke-width="3"/>
  <path id="Path_17612" data-name="Path 17612" d="M0,9.182.03,6.312.1,0" transform="translate(48.91 6.434) rotate(50)" fill="none" stroke="#7948ce" stroke-linejoin="round" stroke-width="3"/>
  <path id="Path_17608" data-name="Path 17608" d="M0,9.262V0" transform="translate(0 22.192) rotate(-90)" fill="none" stroke="#7948ce" stroke-linejoin="round" stroke-width="3"/>
  <path id="Path_17613" data-name="Path 17613" d="M0,0V9.262" transform="translate(45.543 22.192) rotate(-90)" fill="none" stroke="#7948ce" stroke-linejoin="round" stroke-width="3"/>
</svg>
