<svg xmlns="http://www.w3.org/2000/svg" width="174.458" height="46.737" viewBox="0 0 174.458 46.737">
  <g id="SvgjsG1028" transform="translate(-34.78 -322.14)">
    <g id="Group_7122" data-name="Group 7122" transform="translate(34.78 322.14)">
      <path id="Path_17163" data-name="Path 17163" d="M120.559,398.082c1.755-.139,4.121.176,4.093-1.884s-2.948-2.184-4.609-2.184c-1.734,0-5.284.336-5.282,2.584v1.485Zm13.361-1.369,0,13.605h5.325l0-13.513c.092-2.258,2.794-2.721,4.418-2.786,1.779-.071,5.484.193,5.484,2.9v13.4h5.325V396.713a6.878,6.878,0,0,0-4.65-6.315,18.647,18.647,0,0,0-9.96-.4C136.788,390.753,133.921,393.014,133.921,396.713Zm-97.3,0,0,13.605h5.325l0-13.513c.092-2.258,2.794-2.721,4.418-2.786,1.778-.071,5.483.193,5.483,2.9l0,13.4h5.325V396.713a6.878,6.878,0,0,0-4.65-6.315,18.647,18.647,0,0,0-9.96-.4C39.487,390.753,36.62,393.014,36.62,396.713Zm29.9-.287c.414-1.879,2.878-2.344,4.388-2.4,1.779-.071,5.456.264,5.456,2.978v.628H69.362c-3.617.107-8.179.769-8.222,5.788a6.913,6.913,0,0,0,4.118,6.116,18.056,18.056,0,0,0,11.786.2,6.859,6.859,0,0,0,4.65-6.379v-6.574a6.867,6.867,0,0,0-4.65-6.379,18.628,18.628,0,0,0-9.96-.4c-3,.737-5.794,2.9-5.938,6.431h5.379Zm4.037,5.618h5.8v1.485c0,2.246-3.548,2.582-5.284,2.582-1.659,0-4.579-.122-4.609-2.182S68.807,402.183,70.562,402.044Zm19.581-5.618c.362-1.931,2.844-2.346,4.374-2.408,1.778-.071,5.484.191,5.484,2.9.006,0,0,5.456,0,5.961,0,2.318-2.711,2.9-4.373,2.927l-8.946-.008v4.515H95.6c4.183-.03,9.724-1.8,9.724-7.371,0-2.076-.013-4.159,0-6.234a6.878,6.878,0,0,0-4.65-6.315,18.628,18.628,0,0,0-9.96-.4c-3,.737-5.794,2.9-5.938,6.431h5.366Zm37.928,13.9h-8.918c-4.183-.03-9.724-1.8-9.724-7.371v-6.174a6.862,6.862,0,0,1,4.65-6.379,18.057,18.057,0,0,1,11.786.2,6.913,6.913,0,0,1,4.118,6.116c-.047,5.6-5.715,5.775-9.424,5.809V402.5h-5.805v.388c0,2.318,2.711,2.893,4.373,2.927h.021l8.923-.008Z" transform="translate(-36.275 -376.876)" fill="#2055b9"/>
      <path id="Path_17164" data-name="Path 17164" d="M734.058,335.445v18.981h15.778v-4.273H739.153V335.445Zm7.073-13.305a23.181,23.181,0,1,1-16.391,6.79A23.11,23.11,0,0,1,741.131,322.14Z" transform="translate(-589.854 -322.14)" fill="#2055b9" fill-rule="evenodd"/>
      <path id="Path_17165" data-name="Path 17165" d="M34.8,531a1.379,1.379,0,0,1,.118-.553h1.217a2.255,2.255,0,0,0-.054.472.945.945,0,0,0,.945,1.026c.707,0,.917-.617.917-1.118s-.2-1.153-1.009-1.153h-.6v-1.581H34.78v-.917h1.553V526.3H37.54v.872h1.571v.917H37.54v.718a1.952,1.952,0,0,1,1.68,1.98,2.125,2.125,0,0,1-2.2,2.124A1.962,1.962,0,0,1,34.8,531Zm5.074-1.862a1.883,1.883,0,0,1,.092-.607H41.2a2.45,2.45,0,0,0-.054.527c0,.536.255,1.071.891,1.071a.887.887,0,0,0,.881-1,1.441,1.441,0,0,0-.773-1.281,1.675,1.675,0,0,1-.962-1.543h1.281c.054.435.354.654.7.917a2.18,2.18,0,0,1,1.044,1.888,2.022,2.022,0,0,1-2.179,1.989A1.9,1.9,0,0,1,39.873,529.134ZM45,528.725v-2.633c0-1.335.664-1.935,2.271-1.935h1.853v.99H47.153c-.619,0-.863.246-.863.844v.99h.019a1.657,1.657,0,0,1,1.416-.664c1.153,0,1.944.936,1.944,2.4a2.335,2.335,0,1,1-4.669.009Zm3.377.019c0-.881-.364-1.463-1.044-1.463s-1.089.536-1.089,1.463c0,.818.418,1.38,1.1,1.38C48.006,530.124,48.378,529.559,48.378,528.744Zm1.976-.047c0-1.463.782-2.325,1.944-2.325a1.668,1.668,0,0,1,1.416.664h.019v-.908c0-.718-.345-1.134-.962-1.134a.875.875,0,0,0-.954.8H50.555c0-.907.726-1.761,2.216-1.761a1.979,1.979,0,0,1,2.252,2.016v2.679a2.335,2.335,0,1,1-4.669-.03Zm3.424.054c0-.926-.409-1.416-1.089-1.416s-1.044.536-1.044,1.416c0,.818.364,1.371,1.026,1.371C53.352,530.124,53.778,529.569,53.778,528.751Zm7.026-.118c0-.962-.246-1.344-.718-1.344-.373,0-.536.373-.536.926v1.543h-1.2v-1.543c0-.591-.154-.926-.518-.926-.473,0-.718.4-.718,1.361a4.387,4.387,0,0,0,.664,2.316H56.472a4.978,4.978,0,0,1-.654-2.878c0-2.224,1.063-3.169,2.616-3.488l.827-.173a.537.537,0,0,0,.383-.272H60.95c-.071.7-.444,1.08-1.371,1.271l-.818.163c-.834.163-1.725.418-1.961,1.307h.028a1.229,1.229,0,0,1,1.054-.581,1.057,1.057,0,0,1,1.044.808h.036a1.393,1.393,0,0,1,1.335-.808c1.163,0,1.808.926,1.808,2.288a3.934,3.934,0,0,1-.645,2.361H60.143A4.2,4.2,0,0,0,60.8,528.633Zm7.843.009c0-.926-.208-1.361-.681-1.361-.435,0-.654.319-.654.9v.518a2.265,2.265,0,1,1-4.523,0A2.172,2.172,0,0,1,65,526.3a1.729,1.729,0,0,1,1.661.853h.037a1.39,1.39,0,0,1,1.418-.844c1.144,0,1.824.872,1.824,2.325a3.892,3.892,0,0,1-.645,2.334H67.985A4.291,4.291,0,0,0,68.647,528.643Zm-2.608.054c0-.808-.291-1.425-1-1.425-.681,0-.962.626-.962,1.425s.281,1.425.971,1.425S66.039,529.5,66.039,528.7Zm4.538,2.252a2.608,2.608,0,0,1,.163-.891h1.243a2.735,2.735,0,0,0-.118.808c0,.536.255,1.073.917,1.073.69,0,.936-.546.936-1.073v-2.443c0-.645-.191-1.153-.844-1.153-.608,0-.844.473-.844.962a1.807,1.807,0,0,0,.045.381H70.794a1.842,1.842,0,0,1-.054-.435,1.932,1.932,0,0,1,2.134-1.879,1.961,1.961,0,0,1,2.134,2.044v2.533a2.019,2.019,0,0,1-2.224,2.034A1.939,1.939,0,0,1,70.576,530.949Zm8.533.981H76.475v-.9h.773l.009-.036a2.445,2.445,0,0,1-1.453-2.361c0-1.5.653-2.334,1.808-2.334a1.258,1.258,0,0,1,1.281.836h.036a1.12,1.12,0,0,1,1.144-.836,1.051,1.051,0,0,1,1.144.836h.036a1.324,1.324,0,0,1,1.271-.836c1.2,0,1.843.836,1.843,2.306a4.636,4.636,0,0,1-.382,1.952H82.676a4.23,4.23,0,0,0,.39-1.9c0-.971-.236-1.389-.673-1.389-.362,0-.544.345-.544.891v1.6H80.641v-1.59c0-.562-.128-.9-.553-.9s-.562.373-.562.891v1.6H78.309v-1.581c0-.591-.182-.907-.546-.907-.482,0-.671.463-.671,1.38a2.092,2.092,0,0,0,1.808,2.261c.39.064,1.271.144,1.661.246,1.063.281,1.607.772,1.652,1.626H80.8C80.707,532.211,80.116,531.93,79.109,531.93Zm10.946-3.268c0-.971-.246-1.389-.728-1.389-.373,0-.536.373-.536.926v1.562h-1.2V528.2c0-.591-.154-.926-.518-.926-.473,0-.718.427-.718,1.38a4.386,4.386,0,0,0,.664,2.316H85.713a4.009,4.009,0,0,1-.645-2.37c0-1.463.645-2.3,1.789-2.3a1.235,1.235,0,0,1,1.307.836H88.2a1.324,1.324,0,0,1,1.344-.836c1.163,0,1.8.908,1.8,2.306a3.934,3.934,0,0,1-.645,2.361H89.383A4.178,4.178,0,0,0,90.056,528.661Zm1.974.045a2.185,2.185,0,0,1,1.907-2.351v-.336c0-.418-.272-.546-.563-.664-.354-.144-.718-.345-.718-1.2h1.2c.037.409.317.563.608.718a1.021,1.021,0,0,1,.728,1.009v.553a2.393,2.393,0,1,1-3.159,2.269Zm3.4,0c0-.763-.317-1.416-1.063-1.416-.707,0-1.044.654-1.044,1.416,0,.744.317,1.416,1.054,1.416S95.428,529.46,95.428,528.706Zm5.154.054c0-.78-.218-1.489-.943-1.489s-.936.709-.936,1.489a4.827,4.827,0,0,0,.5,2.207H97.94a4.367,4.367,0,0,1-.536-2.252,2.245,2.245,0,1,1,4.478,0,4.443,4.443,0,0,1-.536,2.252h-1.262A4.8,4.8,0,0,0,100.582,528.761Zm2.094.109v-4.714h1.29v4.721c0,.718.3,1.243.952,1.243s.953-.508.953-1.181a1.55,1.55,0,0,0-.326-.936,2.294,2.294,0,0,1-.581-1.581h1.262a1.931,1.931,0,0,0,.444,1.163,2.236,2.236,0,0,1,.5,1.444,2.25,2.25,0,0,1-4.493-.159Zm9.876,3.06h-1.581v-.881h.853v-.036a2.386,2.386,0,0,1-1.444-2.379c0-1.5.681-2.334,1.824-2.334a1.44,1.44,0,0,1,1.444.853h.036a1.762,1.762,0,0,1,1.644-.853,2.159,2.159,0,0,1,2.134,2.325,2.216,2.216,0,1,1-4.431,0v-.463c0-.518-.227-.891-.645-.891-.5,0-.718.473-.718,1.38a2.439,2.439,0,0,0,1.862,2.453c1.163.3,1.926.681,1.926,1.68h-1.408C114.051,532.321,113.571,531.93,112.552,531.93Zm3.679-3.313c0-.718-.3-1.354-.99-1.354-.664,0-.971.645-.971,1.354,0,.681.3,1.316.971,1.316S116.231,529.306,116.231,528.616Zm1.9.517a1.883,1.883,0,0,1,.092-.607h1.236a2.45,2.45,0,0,0-.054.527c0,.536.255,1.071.891,1.071a.887.887,0,0,0,.881-1,1.441,1.441,0,0,0-.773-1.281,1.675,1.675,0,0,1-.962-1.543h1.281c.054.435.354.654.7.917a2.18,2.18,0,0,1,1.044,1.888,2.022,2.022,0,0,1-2.179,1.989A1.9,1.9,0,0,1,118.132,529.134Zm5.683-.427a1.892,1.892,0,0,1,.473-1.3v-.045a1.547,1.547,0,0,1-1.344-1.6,1.858,1.858,0,0,1,3.7-.128,1.351,1.351,0,0,1-.236.754v.036a2.152,2.152,0,0,1,2.169,2.28,2.379,2.379,0,1,1-4.757,0Zm1.68-2.916c0-.482-.274-.872-.7-.872s-.709.381-.709.872a.752.752,0,0,0,.709.836C125.231,526.627,125.5,526.272,125.5,525.791Zm1.779,2.916c0-.754-.345-1.408-1.089-1.408-.69,0-1.063.664-1.063,1.408,0,.718.336,1.416,1.071,1.416S127.275,529.441,127.275,528.706Zm4.119,3.223h-1.534v-.881h.853v-.036a2.478,2.478,0,0,1-1.453-2.379c0-1.5.645-2.334,1.789-2.334a1.235,1.235,0,0,1,1.307.836h.038a1.351,1.351,0,0,1,1.335-.836c1.2,0,1.817.836,1.817,2.306a4.665,4.665,0,0,1-.381,1.952h-1.316a4.26,4.26,0,0,0,.4-1.9c0-.953-.236-1.389-.718-1.389-.373,0-.536.39-.536.945v1.543h-1.208v-1.543c0-.591-.163-.945-.527-.945-.5,0-.709.482-.709,1.38a2.258,2.258,0,0,0,1.817,2.406c1.172.262,1.935.726,1.935,1.725h-1.4C132.9,532.321,132.411,531.93,131.395,531.93Zm4.791-.926a2.041,2.041,0,0,1,.163-.808h1.243a2.469,2.469,0,0,0-.118.726.955.955,0,0,0,1,1.026.943.943,0,0,0,.953-1.026.912.912,0,0,0-.953-1.035h-.3v-.971h.281c.626,0,.789-.354.789-.8a.756.756,0,0,0-.78-.844c-.626,0-.827.428-.827.9a1.8,1.8,0,0,0,.028.309H136.4a1.524,1.524,0,0,1-.045-.381,1.888,1.888,0,0,1,2.124-1.8,1.842,1.842,0,0,1,2.044,1.734,1.315,1.315,0,0,1-.844,1.344v.036a1.525,1.525,0,0,1,1.035,1.553,2.053,2.053,0,0,1-2.261,1.943A2.021,2.021,0,0,1,136.185,531Zm5.128-.054a2.609,2.609,0,0,1,.163-.891h1.243a2.734,2.734,0,0,0-.118.808c0,.536.255,1.073.917,1.073.69,0,.936-.546.936-1.073v-2.443c0-.645-.191-1.153-.844-1.153-.608,0-.844.473-.844.962a1.808,1.808,0,0,0,.045.381h-1.281a1.842,1.842,0,0,1-.054-.435,1.932,1.932,0,0,1,2.134-1.879,1.962,1.962,0,0,1,2.134,2.044v2.533a2.019,2.019,0,0,1-2.224,2.034A1.939,1.939,0,0,1,141.313,530.949Zm5.164.054a2.041,2.041,0,0,1,.163-.808h1.245a2.469,2.469,0,0,0-.118.726.955.955,0,0,0,1,1.026.943.943,0,0,0,.953-1.026.911.911,0,0,0-.953-1.035h-.3v-.971h.281c.626,0,.789-.354.789-.8a.756.756,0,0,0-.78-.844c-.626,0-.827.428-.827.9a1.806,1.806,0,0,0,.028.309H146.7a1.525,1.525,0,0,1-.045-.381,1.888,1.888,0,0,1,2.124-1.8,1.842,1.842,0,0,1,2.044,1.734,1.315,1.315,0,0,1-.844,1.344v.036a1.525,1.525,0,0,1,1.035,1.553,2.053,2.053,0,0,1-2.261,1.943A2.021,2.021,0,0,1,146.477,531Zm5.154-1.869a1.883,1.883,0,0,1,.092-.607h1.236a2.451,2.451,0,0,0-.054.527c0,.536.253,1.071.889,1.071a.887.887,0,0,0,.881-1,1.441,1.441,0,0,0-.773-1.281,1.675,1.675,0,0,1-.962-1.543h1.281c.054.435.354.654.7.917a2.18,2.18,0,0,1,1.044,1.888,2.022,2.022,0,0,1-2.179,1.989A1.9,1.9,0,0,1,151.632,529.134Z" transform="translate(-34.78 -486.175)" fill="#2055b9"/>
    </g>
  </g>
</svg>
