<svg id="Component_34_1" data-name="Component 34 – 1" xmlns="http://www.w3.org/2000/svg" width="55" height="56" viewBox="0 0 55 56">
  <g id="Group_8641" data-name="Group 8641" transform="translate(-564 -383.002)">
    <g id="Group_8397" data-name="Group 8397" transform="translate(564 390)">
      <g id="Rectangle_3915" data-name="Rectangle 3915" transform="translate(0 0)" fill="#fff" stroke="#7948ce" stroke-width="3">
        <rect width="46" height="49.001" rx="6" stroke="none"/>
        <rect x="1.5" y="1.5" width="43" height="46.001" rx="4.5" fill="none"/>
      </g>
    </g>
    <g id="Union_27" data-name="Union 27" transform="translate(572.5 383.002)" fill="#fff" stroke-linejoin="round">
      <path d="M 27.49980163574219 15.50010013580322 L 1.500000834465027 15.50010013580322 L 1.500000834465027 6.500400543212891 L 7.212270736694336 6.500400543212891 L 8.241641044616699 6.500400543212891 L 8.61189079284668 5.539920330047607 C 9.065240859985352 4.363810539245605 9.853780746459961 3.358570575714111 10.89223098754883 2.632880449295044 C 11.95278072357178 1.891740560531616 13.20029067993164 1.500000596046448 14.49990081787109 1.500000596046448 C 15.79951095581055 1.500000596046448 17.04701042175293 1.891740560531616 18.10755157470703 2.632870435714722 C 19.14601135253906 3.358570575714111 19.93454170227051 4.363810539245605 20.38789176940918 5.539920330047607 L 20.75814056396484 6.500400543212891 L 21.78750991821289 6.500400543212891 L 27.49980163574219 6.500400543212891 L 27.49980163574219 15.50010013580322 Z" stroke="none"/>
      <path d="M 25.99980163574219 14.00010013580322 L 25.99980163574219 8.000400543212891 L 21.78750991821289 8.000400543212891 C 20.54701995849609 8.000400543212891 19.43446159362793 7.236910343170166 18.98828125 6.07943058013916 C 18.64274024963379 5.18302059173584 18.04107093811035 4.416390419006348 17.24833106994629 3.862400531768799 C 16.44099044799805 3.298210620880127 15.4906005859375 3.000000476837158 14.49990081787109 3.000000476837158 C 13.50920104980469 3.000000476837158 12.55880069732666 3.298210620880127 11.75145053863525 3.862400531768799 C 10.95871067047119 4.416390419006348 10.35704040527344 5.183030605316162 10.01150035858154 6.07943058013916 C 9.56532096862793 7.236910343170166 8.452760696411133 8.000400543212891 7.212270736694336 8.000400543212891 L 3.000000715255737 8.000400543212891 L 3.000000715255737 14.00010013580322 L 25.99980163574219 14.00010013580322 M 27.99990081787109 17.00010108947754 L 0.9999008178710938 17.00010108947754 C 0.4473008215427399 17.00010108947754 8.178710686479462e-07 16.55280113220215 8.178710686479462e-07 16.00020027160645 L 8.178710686479462e-07 6.000300407409668 C 8.178710686479462e-07 5.447700500488281 0.4473008215427399 5.000400543212891 0.9999008178710938 5.000400543212891 L 7.212270736694336 5.000400543212891 C 8.339760780334473 2.075460433959961 11.17755126953125 5.447387820822769e-07 14.49990081787109 5.447387820822769e-07 C 17.82225036621094 5.447387820822769e-07 20.66002082824707 2.075460433959961 21.78750991821289 5.000400543212891 L 27.99990081787109 5.000400543212891 C 28.5525016784668 5.000400543212891 28.99980163574219 5.447700500488281 28.99980163574219 6.000300407409668 L 28.99980163574219 16.00020027160645 C 28.99980163574219 16.55280113220215 28.5525016784668 17.00010108947754 27.99990081787109 17.00010108947754 Z" stroke="none" fill="#7948ce"/>
    </g>
  </g>
  <path id="Path_13667" data-name="Path 13667" d="M-1.018-3.524H7.963l4.161-6.353,5.8,12,5.72-12,3.788,6.353H41.982" transform="translate(13.018 36.689)" fill="none" stroke="#7948ce" stroke-linejoin="round" stroke-width="3"/>
</svg>
