<svg xmlns="http://www.w3.org/2000/svg" width="17.4" height="17.4" viewBox="0 0 17.4 17.4">
  <g id="Group_4807" data-name="Group 4807" transform="translate(-992.3 -39.3)" opacity="0.997">
    <path id="Path_12911" data-name="Path 12911" d="M8,0A8,8,0,1,1,0,8,8,8,0,0,1,8,0Z" transform="translate(993 40)" fill="none" stroke="#5d5e69" stroke-width="1.4"/>
    <line id="Line_373" data-name="Line 373" x2="15.286" transform="translate(993.411 45.2)" fill="none" stroke="#5d5e69" stroke-width="1.4"/>
    <path id="Path_12909" data-name="Path 12909" d="M-.422,2.062A10.849,10.849,0,0,1-4-5.776a12.035,12.035,0,0,1,3.58-8.162" transform="translate(1001.858 53.938)" fill="none" stroke="#5d5e69" stroke-width="1.4"/>
    <path id="Path_12910" data-name="Path 12910" d="M-4,2.062A10.849,10.849,0,0,0-.422-5.776,12.035,12.035,0,0,0-4-13.938" transform="translate(1004.566 53.938)" fill="none" stroke="#5d5e69" stroke-width="1.4"/>
    <line id="Line_374" data-name="Line 374" x2="15.286" transform="translate(993.411 50.8)" fill="none" stroke="#5d5e69" stroke-width="1.4"/>
  </g>
</svg>
