<svg xmlns="http://www.w3.org/2000/svg" width="37.5" height="37.5" viewBox="0 0 37.5 37.5">
  <g id="Component_34_1" data-name="Component 34 – 1" transform="translate(0.75 0.75)">
    <rect id="Rectangle_3752" data-name="Rectangle 3752" width="36" height="36" rx="7" fill="none" stroke="#5d5e69" stroke-width="1.5"/>
    <g id="Group_7709" data-name="Group 7709" transform="translate(10.406 9.935)">
      <path id="Path_17308" data-name="Path 17308" d="M-7150.828-19954.656s1.2-.541.846-1.623c-.182-.555-1.177-2.68-2.638-2.99a2.465,2.465,0,0,0-2.4,1.844c-.138,1.008,1.553,4.77,4.2,7.545a14.775,14.775,0,0,0,6.207,3.836,2.346,2.346,0,0,0,2.792-2.361c-.158-1.248-1.8-2.279-2.972-2.65a1.3,1.3,0,0,0-1.626.707" transform="translate(7155.031 19961.818)" fill="none" stroke="#5d5e69" stroke-width="1.6"/>
      <path id="Path_17309" data-name="Path 17309" d="M8.354,0A7.426,7.426,0,0,1,0,5.346" transform="matrix(-0.174, -0.985, 0.985, -0.174, 9.933, 9.167)" fill="none" stroke="#5d5e69" stroke-width="1.6"/>
      <path id="Path_17310" data-name="Path 17310" d="M4.3,0A3.914,3.914,0,0,1,0,2.749" transform="matrix(-0.174, -0.985, 0.985, -0.174, 9.138, 8.571)" fill="none" stroke="#5d5e69" stroke-width="1.6"/>
    </g>
  </g>
</svg>
