<svg xmlns="http://www.w3.org/2000/svg" width="20.392" height="23.32" viewBox="0 0 20.392 23.32">
  <path id="paperclip" d="M6,20a6.135,6.135,0,0,1-6-6.25V6.172H1.6V13.75A4.5,4.5,0,0,0,6,18.333a4.5,4.5,0,0,0,4.4-4.583V4.583A2.863,2.863,0,0,0,7.6,1.667,2.863,2.863,0,0,0,4.8,4.583v8.333a1.2,1.2,0,1,0,2.4,0V7.372H8.8v5.545A2.863,2.863,0,0,1,6,15.833a2.863,2.863,0,0,1-2.8-2.917V4.583A4.5,4.5,0,0,1,7.6,0,4.5,4.5,0,0,1,12,4.583V13.75A6.135,6.135,0,0,1,6,20Zm0,0" transform="translate(10) rotate(30)" fill="#dedfe4"/>
</svg>
