<svg xmlns="http://www.w3.org/2000/svg" width="20" height="19" viewBox="0 0 20 19">
  <path id="star" d="M19.947,7.675a1.06,1.06,0,0,0-.914-.724l-5.773-.52-2.282-5.3a1.067,1.067,0,0,0-1.956,0l-2.282,5.3-5.774.52a1.063,1.063,0,0,0-.914.724A1.049,1.049,0,0,0,.362,8.8l4.364,3.794L3.44,18.207A1.049,1.049,0,0,0,3.853,19.3a1.068,1.068,0,0,0,1.168.051L10,16.4l4.977,2.951a1.07,1.07,0,0,0,1.169-.051,1.049,1.049,0,0,0,.413-1.088l-1.287-5.618L19.637,8.8A1.049,1.049,0,0,0,19.947,7.675ZM10.1,16.339" transform="translate(0 -0.496)" fill="#ffc400"/>
</svg>
