<svg id="Group_8398" data-name="Group 8398" xmlns="http://www.w3.org/2000/svg" width="62" height="54" viewBox="0 0 62 54">
  <g id="Rectangle_3945" data-name="Rectangle 3945" transform="translate(48 54) rotate(180)" fill="#fff" stroke="#7948ce" stroke-width="3">
    <rect width="48" height="54" rx="6" stroke="none"/>
    <rect x="1.5" y="1.5" width="45" height="51" rx="4.5" fill="none"/>
  </g>
  <g id="Group_8384" data-name="Group 8384" transform="translate(14 16)">
    <path id="Path_17325" data-name="Path 17325" d="M10.33-9.047l3,2.131,3.838-4.271" transform="translate(-4 19.012)" fill="none" stroke="#7948ce" stroke-linejoin="round" stroke-width="3"/>
    <path id="Path_17332" data-name="Path 17332" d="M-17407.24-4974.39l-9.756-3.641-10.006,3.641s-.639,6.1.932,10.689,9.074,7.669,9.074,7.669,7.316-3.08,8.828-7.669S-17407.24-4974.39-17407.24-4974.39Z" transform="translate(17427.131 4978.031)" fill="none" stroke="#7948ce" stroke-linejoin="round" stroke-width="3"/>
  </g>
  <g id="Group_8385" data-name="Group 8385" transform="translate(34 19)">
    <g id="Union_26" data-name="Union 26" transform="translate(21.998 23) rotate(180)" fill="#fff" stroke-linejoin="round">
      <path d="M 7.998300552368164 21.50040054321289 C 4.414130687713623 21.50040054321289 1.498200535774231 18.58447074890137 1.498200535774231 15.00030040740967 C 1.498200535774231 13.01753997802734 2.386770486831665 11.16812038421631 3.936060667037964 9.926259994506836 L 4.497900485992432 9.475910186767578 L 4.497900485992432 8.755850791931152 L 4.497900485992432 1.500900387763977 L 11.49780082702637 1.500900387763977 L 11.49780082702637 8.75514030456543 L 11.49780082702637 9.47528076171875 L 12.0597505569458 9.925630569458008 C 13.60954093933105 11.16767024993896 14.49840068817139 13.01731014251709 14.49840068817139 15.00030040740967 C 14.49840068817139 18.58447074890137 11.58247089385986 21.50040054321289 7.998300552368164 21.50040054321289 Z" stroke="none"/>
      <path d="M 7.998300552368164 20.00040054321289 C 10.75536060333252 20.00040054321289 12.99840068817139 17.75736045837402 12.99840068817139 15.00030040740967 C 12.99840068817139 13.47497081756592 12.31437015533447 12.05195999145508 11.12169075012207 11.09613037109375 C 10.41125011444092 10.52676010131836 9.997800827026367 9.665580749511719 9.997800827026367 8.75514030456543 L 9.997800827026367 3.000900506973267 L 5.997900485992432 3.000900506973267 L 5.997900485992432 8.755850791931152 C 5.997900485992432 9.666200637817383 5.584540367126465 10.52730083465576 4.874220371246338 11.09667015075684 C 3.681980609893799 12.05232048034668 2.998200654983521 13.47514057159424 2.998200654983521 15.00030040740967 C 2.998200654983521 17.75736045837402 5.241240501403809 20.00040054321289 7.998300552368164 20.00040054321289 M 7.998300552368164 23.00040054321289 C 3.580200433731079 23.00040054321289 -0.001799447578378022 19.4193000793457 -0.001799447578378022 15.00030040740967 C -0.001799447578378022 12.47413063049316 1.169070601463318 10.22178077697754 2.997900485992432 8.755850791931152 L 2.997900485992432 0.0009004058665595949 L 12.99780082702637 0.0009004058665595949 L 12.99780082702637 8.75514030456543 C 14.82696056365967 10.22106075286865 15.99840068817139 12.47386074066162 15.99840068817139 15.00030040740967 C 15.99840068817139 19.4193000793457 12.41640090942383 23.00040054321289 7.998300552368164 23.00040054321289 Z" stroke="none" fill="#7948ce"/>
    </g>
    <g id="Rectangle_3942" data-name="Rectangle 3942" transform="translate(28 29.999) rotate(180)" fill="#fff" stroke="#7948ce" stroke-width="3">
      <rect width="28" height="10" rx="2" stroke="none"/>
      <rect x="1.5" y="1.5" width="25" height="7" rx="0.5" fill="none"/>
    </g>
    <g id="Rectangle_3943" data-name="Rectangle 3943" transform="translate(24 34.999) rotate(180)" fill="#fff" stroke="#7948ce" stroke-width="3">
      <path d="M2,0H18a2,2,0,0,1,2,2V8a0,0,0,0,1,0,0H0A0,0,0,0,1,0,8V2A2,2,0,0,1,2,0Z" stroke="none"/>
      <path d="M2,1.5H18a.5.5,0,0,1,.5.5V5A1.5,1.5,0,0,1,17,6.5H3A1.5,1.5,0,0,1,1.5,5V2A.5.5,0,0,1,2,1.5Z" fill="none"/>
    </g>
  </g>
</svg>
