<svg xmlns="http://www.w3.org/2000/svg" width="53" height="43" viewBox="0 0 53 43">
  <g id="Group_9231" data-name="Group 9231" transform="translate(19844.5 23508.5)">
    <g id="Group_6257" data-name="Group 6257" transform="translate(-19965 -23648)">
      <path id="Rectangle_2225" data-name="Rectangle 2225" d="M0,0H9.089a0,0,0,0,1,0,0V2.958A4.545,4.545,0,0,1,4.545,7.5h0A4.545,4.545,0,0,1,0,2.958V0A0,0,0,0,1,0,0Z" transform="translate(158.366 173.497)" fill="none" stroke="#ff4646" stroke-width="3"/>
      <g id="Group_4842" data-name="Group 4842" transform="translate(122 141)">
        <path id="Path_13624" data-name="Path 13624" d="M25.186.657H11.959C9.1.657,7.067,1.5,6.4,4.1l-2.6,10.8a8.581,8.581,0,0,0-1.868.477c-1.427.487-3.943,3.006-3.943,6.8v7.439c0,2.981,1.722,3.535,3.2,3.535h24" transform="translate(2.018 -0.657)" fill="none" stroke="#ff4646" stroke-linejoin="round" stroke-width="3"/>
        <path id="Path_13629" data-name="Path 13629" d="M-2.018.657H11.209C14.07.657,16.1,1.5,16.772,4.1l2.6,10.8s5.811,1.509,5.811,7.281v7.439c0,2.981-1.722,3.535-3.2,3.535h-24" transform="translate(24.814 -0.657)" fill="none" stroke="#ff4646" stroke-linejoin="round" stroke-width="3"/>
      </g>
      <path id="Path_13628" data-name="Path 13628" d="M39.905,9.72H-.018" transform="translate(127.017 145.474)" fill="none" stroke="#ff4646" stroke-linejoin="round" stroke-width="3"/>
      <path id="Path_13626" data-name="Path 13626" d="M9.982.657h-10" transform="translate(129.726 163.337)" fill="none" stroke="#ff4646" stroke-linejoin="round" stroke-width="3"/>
      <path id="Path_13627" data-name="Path 13627" d="M9.982.657h-10" transform="translate(154.31 163.337)" fill="none" stroke="#ff4646" stroke-linejoin="round" stroke-width="3"/>
      <path id="Rectangle_2224" data-name="Rectangle 2224" d="M0,0H9.089a0,0,0,0,1,0,0V2.958A4.545,4.545,0,0,1,4.545,7.5h0A4.545,4.545,0,0,1,0,2.958V0A0,0,0,0,1,0,0Z" transform="translate(126.545 173.497)" fill="none" stroke="#ff4646" stroke-width="3"/>
    </g>
  </g>
</svg>
