<svg xmlns="http://www.w3.org/2000/svg" width="55.5" height="43" viewBox="0 0 55.5 43">
  <g id="Group_9235" data-name="Group 9235" transform="translate(19353.5 23152.5)">
    <path id="Path_13666" data-name="Path 13666" d="M13.056,35.525A13.239,13.239,0,0,0,0,48.815c0,13.42,24,26.71,24,26.71S48,62.04,48,48.815a13.174,13.174,0,0,0-13.056-13.29h0A12.871,12.871,0,0,0,24,41.519,13,13,0,0,0,13.056,35.525Z" transform="translate(-19352 -23186.525)" fill="none" stroke="#ff0089" stroke-linecap="round" stroke-linejoin="round" stroke-width="3"/>
    <path id="Path_13667" data-name="Path 13667" d="M-1.018-3.524H7.963l4.161-6.353,5.8,12,5.72-12,3.788,6.353H41.982" transform="translate(-19339.982 -23127.123)" fill="none" stroke="#ff0089" stroke-linejoin="round" stroke-width="3"/>
  </g>
</svg>
