<svg xmlns="http://www.w3.org/2000/svg" width="51" height="43" viewBox="0 0 51 43">
  <g id="Group_9232" data-name="Group 9232" transform="translate(19355.5 23508.5)">
    <g id="Group_6255" data-name="Group 6255" transform="translate(-20166 -24737)">
      <path id="Path_13634" data-name="Path 13634" d="M7.424-12.591v-5.5" transform="translate(814.278 1282.591)" fill="none" stroke="#007fff" stroke-linecap="square" stroke-width="3"/>
      <path id="Path_13635" data-name="Path 13635" d="M7.424-12.591v-5.5" transform="translate(844.544 1282.591)" fill="none" stroke="#007fff" stroke-linecap="square" stroke-width="3"/>
      <path id="Path_13633" data-name="Path 13633" d="M52.379,0H17.225L10.551-8.83" transform="translate(804.66 1263.855)" fill="none" stroke="#007fff" stroke-width="3"/>
      <g id="Group_4845" data-name="Group 4845" transform="translate(812 1230)">
        <path id="Path_12911" data-name="Path 12911" d="M24,0C37.255,0,48,8.137,48,18.175H0C0,8.137,10.745,0,24,0Z" transform="translate(0 0)" fill="none" stroke="#007fff" stroke-linejoin="round" stroke-width="3"/>
        <path id="Path_12910" data-name="Path 12910" d="M11.7,17.709C11.7,2.72,0,0,0,0" transform="translate(23.938 0)" fill="none" stroke="#007fff" stroke-width="3"/>
        <path id="Path_13632" data-name="Path 13632" d="M0,16.026V0" transform="translate(23.532 17.856)" fill="none" stroke="#007fff" stroke-width="3"/>
        <path id="Path_13631" data-name="Path 13631" d="M0,17.709C0,2.72,11.7,0,11.7,0" transform="translate(12.361 0)" fill="none" stroke="#007fff" stroke-width="3"/>
      </g>
    </g>
  </g>
</svg>
