<svg xmlns="http://www.w3.org/2000/svg" width="206.779" height="82.151" viewBox="0 0 206.779 82.151">
  <g id="Group_7150" data-name="Group 7150" transform="translate(-851.234 -369)">
    <g id="Group_7149" data-name="Group 7149" transform="translate(927.132 369)">
      <path id="Path_17152" data-name="Path 17152" d="M19.823,23.286c.164,1.991.247,3.029-1.233,4.674A50.35,50.35,0,0,1,8.972,35.4a36.19,36.19,0,0,1-5.754,2.943c-1.315.519-2.384.692-2.959-.26a2.115,2.115,0,0,1,0-1.731c1.4-3.981,5.425-11.6,8.138-16.444.247-.519.575-1.039.822-1.558,4.11-7.443,9.535-16.531,10.6-18,.164-.173.411-.433.658-.26.247.087.247.433.164.606a1.842,1.842,0,0,0-.082.433c-1.726,7.443-1.562,14.8-.74,22.157" transform="translate(-0.069 -0.034)" fill="#7063ea"/>
      <path id="Path_17153" data-name="Path 17153" d="M30.4,25.611c-1.726-.867-2.63-1.214-3.288-3.467A55.836,55.836,0,0,1,25.8,9.575a45.2,45.2,0,0,1,.411-6.761C26.458,1.34,26.869.3,27.937.3a1.647,1.647,0,0,1,1.4.867C31.965,4.461,36.075,12,38.788,16.856c.247.52.575,1.04.822,1.56,4.11,7.455,8.878,16.989,9.535,18.723.082.26.164.607-.082.78a.646.646,0,0,1-.575-.087s-.247-.173-.247-.26C42.98,32.112,36.815,28.558,30.4,25.611" transform="translate(-4.648 -0.081)" fill="#7063ea"/>
      <path id="Path_17154" data-name="Path 17154" d="M21.2,34.212c1.562-1.069,2.3-1.644,4.521-1.151a54.141,54.141,0,0,1,10.933,4.768A35.78,35.78,0,0,1,42,41.446c1.069.9,1.808,1.726,1.233,2.713a1.837,1.837,0,0,1-1.48.822c-4.028.658-12.248.74-17.673.74H22.433c-8.138,0-18.331-.411-20.057-.658A.543.543,0,0,1,1.8,44.57a.44.44,0,0,1,.411-.411,1.672,1.672,0,0,1,.411-.082C9.609,42.1,15.61,38.4,21.2,34.212" transform="translate(-0.376 -3.934)" fill="#7063ea"/>
    </g>
    <g id="Group_7148" data-name="Group 7148" transform="translate(851.234 434.605)">
      <path id="Path_17146" data-name="Path 17146" d="M80.087,21.98a6.466,6.466,0,0,1,1.233,4.275v3.781a16.286,16.286,0,0,1-1.151,6.247H77.046a19.936,19.936,0,0,0,1.069-6.247V26.254a5.217,5.217,0,0,0-.411-2.3,1.6,1.6,0,0,0-1.48-.658,1.806,1.806,0,0,0-1.48.658,4.259,4.259,0,0,0-.411,2.3v4.357a6.38,6.38,0,0,1-1.4,4.439,5.347,5.347,0,0,1-4.11,1.48A5.155,5.155,0,0,1,64.8,35.05a6.38,6.38,0,0,1-1.4-4.439V26.419a6.51,6.51,0,0,1,1.315-4.439,5.838,5.838,0,0,1,6.412-.9,3.223,3.223,0,0,1,1.4,1.726,3.6,3.6,0,0,1,1.562-1.726,5.459,5.459,0,0,1,2.466-.575,4.564,4.564,0,0,1,3.535,1.48M70.963,26.5a5.518,5.518,0,0,0-.247-1.891,1.755,1.755,0,0,0-.658-.986,2.8,2.8,0,0,0-1.315-.329,1.706,1.706,0,0,0-1.233.329,1.51,1.51,0,0,0-.658.986,6.186,6.186,0,0,0-.164,1.891v4.192a9.984,9.984,0,0,0,.164,1.891,1.755,1.755,0,0,0,.658.986,2.723,2.723,0,0,0,1.233.329,2.086,2.086,0,0,0,1.315-.329,1.51,1.51,0,0,0,.658-.986,5.85,5.85,0,0,0,.247-1.891Z" transform="translate(-63.4 -20.248)" fill="#6d6e70"/>
      <path id="Path_17147" data-name="Path 17147" d="M98.289,22.1a6.38,6.38,0,0,1,1.4,4.439v3.617A16.285,16.285,0,0,1,98.535,36.4H95.33A19.937,19.937,0,0,0,96.4,30.151V26.617a9.984,9.984,0,0,0-.164-1.891,1.755,1.755,0,0,0-.658-.986,2.723,2.723,0,0,0-1.233-.329,1.837,1.837,0,0,0-1.233.329,1.51,1.51,0,0,0-.658.986,6.186,6.186,0,0,0-.164,1.891v3.535a18.289,18.289,0,0,0,1.069,6.33H90.151A16.9,16.9,0,0,1,89,30.234V26.617a6.38,6.38,0,0,1,1.4-4.439,5.155,5.155,0,0,1,4.028-1.48,4.7,4.7,0,0,1,3.864,1.4" transform="translate(-66.718 -20.283)" fill="#6d6e70"/>
      <path id="Path_17148" data-name="Path 17148" d="M116.051,31.586c0,3.37-1.808,5.1-5.425,5.1s-5.425-1.726-5.425-5.1c0-2.959,1.4-4.686,4.11-5.014v-.9a1.389,1.389,0,0,0-.247-.822,9.12,9.12,0,0,0-.9-.9,5.366,5.366,0,0,1-.658-.575,1.652,1.652,0,0,1-.329-.658,3.648,3.648,0,0,1-.164-1.069V20.9h3.37v.329a1,1,0,0,0,.247.74,9.161,9.161,0,0,0,.822.74,4.024,4.024,0,0,1,.986,1.069,3.179,3.179,0,0,1,.329,1.4v1.48c2.137.575,3.288,2.219,3.288,4.932m-3.864,1.808a2.9,2.9,0,0,0,.493-1.891,3.054,3.054,0,0,0-.493-1.891,2.009,2.009,0,0,0-1.644-.575,1.83,1.83,0,0,0-1.562.575,2.9,2.9,0,0,0-.493,1.891,3.054,3.054,0,0,0,.493,1.891,1.934,1.934,0,0,0,1.562.575,1.906,1.906,0,0,0,1.644-.575" transform="translate(-69.641 -20.307)" fill="#6d6e70"/>
      <path id="Path_17149" data-name="Path 17149" d="M131.189,22.1a6.38,6.38,0,0,1,1.4,4.439v3.617a16.286,16.286,0,0,1-1.151,6.247H128.23a19.936,19.936,0,0,0,1.069-6.247V26.617a9.981,9.981,0,0,0-.164-1.891,1.755,1.755,0,0,0-.658-.986,2.723,2.723,0,0,0-1.233-.329,1.837,1.837,0,0,0-1.233.329,1.51,1.51,0,0,0-.658.986,6.186,6.186,0,0,0-.164,1.891v3.535a18.289,18.289,0,0,0,1.069,6.33h-3.206a16.905,16.905,0,0,1-1.151-6.247V26.617a6.38,6.38,0,0,1,1.4-4.439,5.155,5.155,0,0,1,4.028-1.48,4.8,4.8,0,0,1,3.863,1.4" transform="translate(-72.099 -20.283)" fill="#6d6e70"/>
      <path id="Path_17150" data-name="Path 17150" d="M138.6,20.8h3.288V31.486a2.486,2.486,0,0,0,.575,1.891,2.877,2.877,0,0,0,3.452,0,2.873,2.873,0,0,0,.575-1.891,4.126,4.126,0,0,0-.164-.986,4.01,4.01,0,0,0-.493-1.069c-.247-.493-.411-.986-.575-1.315a6.391,6.391,0,0,1-.164-1.315v-.329h3.288a4.855,4.855,0,0,0,.164,1.151,6.341,6.341,0,0,0,.493,1.233c.247.575.411,1.069.575,1.4a5.72,5.72,0,0,1,.164,1.315c0,3.37-1.891,5.1-5.59,5.1s-5.59-1.726-5.59-5.1Z" transform="translate(-74.543 -20.291)" fill="#6d6e70"/>
      <path id="Path_17151" data-name="Path 17151" d="M164.789,22.1a6.38,6.38,0,0,1,1.4,4.439v3.617a16.285,16.285,0,0,1-1.151,6.247H161.83a19.937,19.937,0,0,0,1.069-6.247V26.617a9.984,9.984,0,0,0-.164-1.891,1.755,1.755,0,0,0-.658-.986,2.724,2.724,0,0,0-1.233-.329,1.837,1.837,0,0,0-1.233.329,1.51,1.51,0,0,0-.658.986,6.185,6.185,0,0,0-.164,1.891v3.535a18.288,18.288,0,0,0,1.069,6.33h-3.206a16.9,16.9,0,0,1-1.151-6.247V26.617a6.38,6.38,0,0,1,1.4-4.439,5.155,5.155,0,0,1,4.028-1.48,4.7,4.7,0,0,1,3.864,1.4" transform="translate(-77.038 -20.283)" fill="#6d6e70"/>
      <path id="Path_17155" data-name="Path 17155" d="M186.724,29.642a4.274,4.274,0,0,1-1.644-1.562,4.57,4.57,0,0,1-.575-2.466v-.329a3.413,3.413,0,0,0-.658-2.466,2.359,2.359,0,0,0-1.891-.74,2.387,2.387,0,0,0-1.973.9,5.236,5.236,0,0,0-.658,2.959,5.033,5.033,0,0,0,1.4,3.864,8.963,8.963,0,0,0,4.357,1.973,7.959,7.959,0,0,1,3.37,1.562,3.5,3.5,0,0,1,1.4,3.041H188.2a2.653,2.653,0,0,0-.658-1.726,3.818,3.818,0,0,0-1.644-1.069,6.276,6.276,0,0,0-2.219-.411,6.408,6.408,0,0,0-3.37.822l-.575-1.151a6.657,6.657,0,0,1,1.069-.493,4.088,4.088,0,0,1,1.315-.247,6.23,6.23,0,0,1-2.137-.986,6.565,6.565,0,0,1-1.726-2.137,7.187,7.187,0,0,1-.658-3.041,6.193,6.193,0,0,1,1.151-4.028,3.817,3.817,0,0,1,3.124-1.315,3.46,3.46,0,0,1,2.137.575,3.354,3.354,0,0,1,1.233,1.726,3.082,3.082,0,0,1,1.315-1.726,4.461,4.461,0,0,1,2.384-.575,4.337,4.337,0,0,1,3.206,1.233,4.946,4.946,0,0,1,1.233,3.617A5.073,5.073,0,0,1,192.807,28a3.541,3.541,0,0,1-1.644,1.644,4.359,4.359,0,0,1-2.3.575,5.553,5.553,0,0,1-2.137-.575m4.439-1.726a3.773,3.773,0,0,0,.74-2.548,3.631,3.631,0,0,0-.74-2.548A3.042,3.042,0,0,0,188.944,22a2.465,2.465,0,0,0-2.137.822,3.645,3.645,0,0,0-.658,2.548,4.121,4.121,0,0,0,.658,2.548,2.908,2.908,0,0,0,2.219.822,2.466,2.466,0,0,0,2.137-.822" transform="translate(-80.154 -20.273)" fill="#6d6e70"/>
      <path id="Path_17156" data-name="Path 17156" d="M204.225,20.8v.658a7.566,7.566,0,0,0,.164,1.562,3.482,3.482,0,0,0,.493,1.151c.247.329.575.822,1.069,1.48.575.74.986,1.315,1.315,1.808a6.8,6.8,0,0,1,.74,1.726,11.127,11.127,0,0,1,.247,2.548,5.73,5.73,0,0,1-.575,2.713,4.747,4.747,0,0,1-1.644,1.726,4.965,4.965,0,0,1-2.466.575,4.646,4.646,0,0,1-3.453-1.315,5.118,5.118,0,0,1-1.315-3.617,6.309,6.309,0,0,1,1.069-3.7l1.315.493a4.046,4.046,0,0,0-.493,1.4,5.888,5.888,0,0,0-.164,1.808,3.727,3.727,0,0,0,.74,2.63,3.112,3.112,0,0,0,2.3.822,3,3,0,0,0,2.384-.822,4.216,4.216,0,0,0,.74-2.795,12.945,12.945,0,0,0-.164-2.055,5.5,5.5,0,0,0-.575-1.4c-.247-.411-.658-.9-1.151-1.562a8.641,8.641,0,0,1-1.233-1.726,11.642,11.642,0,0,1-.658-1.48,6.165,6.165,0,0,1-.164-1.808v-.658h1.48Z" transform="translate(-83.437 -20.285)" fill="#6d6e70"/>
      <path id="Path_17157" data-name="Path 17157" d="M219.452,26.6a3.86,3.86,0,0,1,2.137.658,3.8,3.8,0,0,1,1.48,1.726,6.123,6.123,0,0,1,.575,2.548,5.292,5.292,0,0,1-1.233,3.7,4.474,4.474,0,0,1-3.535,1.315,4.965,4.965,0,0,1-2.466-.575,4.359,4.359,0,0,1-1.726-1.726,5.516,5.516,0,0,1-.658-2.713,5.4,5.4,0,0,1,.9-3.124,4.753,4.753,0,0,1-1.891-1.48,3.675,3.675,0,0,1-.74-2.3,3.622,3.622,0,0,1,.575-2.137,3.058,3.058,0,0,1,1.48-1.4,4.13,4.13,0,0,1,1.973-.493,3.819,3.819,0,0,1,1.891.493,3.5,3.5,0,0,1,1.891,3.206,2.909,2.909,0,0,1-1.315,2.466,3.7,3.7,0,0,1,.658-.164m-5.1-.329a5.31,5.31,0,0,0,1.4,1.233,4.179,4.179,0,0,1,1.069-.74,2.733,2.733,0,0,0,1.151-.986,2.244,2.244,0,0,0,.411-1.48,2.4,2.4,0,0,0-.575-1.808,2.046,2.046,0,0,0-1.562-.575,2.316,2.316,0,0,0-1.726.575,2.7,2.7,0,0,0-.575,1.973,3.454,3.454,0,0,0,.411,1.808m6.823,8.056a4.216,4.216,0,0,0,.74-2.795,4.216,4.216,0,0,0-.74-2.795,3.868,3.868,0,0,0-4.768,0,4.216,4.216,0,0,0-.74,2.795,4.216,4.216,0,0,0,.74,2.795,3,3,0,0,0,2.384.822,3.325,3.325,0,0,0,2.384-.822" transform="translate(-85.367 -20.264)" fill="#6d6e70"/>
      <path id="Path_17158" data-name="Path 17158" d="M231.224,32.108a9.077,9.077,0,0,1,1.315-.247,5.413,5.413,0,0,1-3.124-1.891,5.752,5.752,0,0,1-1.315-4.11,6.1,6.1,0,0,1,1.151-3.946,3.927,3.927,0,0,1,3.124-1.315,4.221,4.221,0,0,1,2.055.493,2.85,2.85,0,0,1,1.315,1.808,3.324,3.324,0,0,1,3.453-2.3,3.846,3.846,0,0,1,3.041,1.233,5.3,5.3,0,0,1,1.151,3.617,10.944,10.944,0,0,1-1.233,4.932l-1.48-.411a8.743,8.743,0,0,0,.74-2.055,10.118,10.118,0,0,0,.247-2.384,4.694,4.694,0,0,0-.658-2.713A2.463,2.463,0,0,0,239.033,22a2.235,2.235,0,0,0-1.973.822,4.889,4.889,0,0,0-.575,2.795v1.808H234.84V25.614a4.718,4.718,0,0,0-.575-2.795A2.235,2.235,0,0,0,232.292,22a2.387,2.387,0,0,0-1.973.9,5.236,5.236,0,0,0-.658,2.959,6.067,6.067,0,0,0,.658,2.959,3.889,3.889,0,0,0,1.808,1.644,11,11,0,0,0,3.041.986,8.346,8.346,0,0,1,3.206,1.562A3.942,3.942,0,0,1,239.69,36.3h-1.644a2.976,2.976,0,0,0-1.233-2.548,5.4,5.4,0,0,0-3.124-.9,12.353,12.353,0,0,0-1.644.164,8.766,8.766,0,0,0-1.562.575l-.575-1.151c.493-.082.9-.247,1.315-.329" transform="translate(-87.566 -20.278)" fill="#6d6e70"/>
      <path id="Path_17159" data-name="Path 17159" d="M249.993,24.563a2.87,2.87,0,0,1,.658-1.973,4.529,4.529,0,0,1,1.644-1.4,4.877,4.877,0,0,1,4.274,0,4.529,4.529,0,0,1,1.644,1.4,3.409,3.409,0,0,1,.658,2.055,3.826,3.826,0,0,1-.658,2.3,3.841,3.841,0,0,1-1.973,1.069,3.747,3.747,0,0,1,2.219,1.233,4.29,4.29,0,0,1,.822,2.877,4.405,4.405,0,0,1-1.315,3.452,5.005,5.005,0,0,1-3.535,1.233,6.4,6.4,0,0,1-2.548-.493,4.2,4.2,0,0,1-1.726-1.4,3.6,3.6,0,0,1-.658-2.055,5.652,5.652,0,0,1,.411-1.973l1.48.329a5.7,5.7,0,0,0-.247,1.644,2.427,2.427,0,0,0,.74,1.973,3.851,3.851,0,0,0,2.466.658,3.4,3.4,0,0,0,2.466-.74,3.5,3.5,0,0,0,.74-2.548,3.922,3.922,0,0,0-.74-2.548,3,3,0,0,0-2.384-.822h-.822v-1.4h.822a2.8,2.8,0,0,0,2.055-.575,2.707,2.707,0,0,0,.658-1.973A2.359,2.359,0,0,0,256.4,23a3,3,0,0,0-1.973-.658q-2.713,0-2.713,2.466a5.548,5.548,0,0,0,.164,1.151l-1.562.329a6.029,6.029,0,0,1-.329-1.726" transform="translate(-88.594 -20.265)" fill="#6d6e70"/>
      <path id="Path_17160" data-name="Path 17160" d="M271.969,21.022a4.5,4.5,0,0,1,1.644,1.644,4.579,4.579,0,0,1,.658,2.466v6.576a4.741,4.741,0,0,1-1.233,3.535,4.667,4.667,0,0,1-3.452,1.233,4.965,4.965,0,0,1-2.466-.575,3.775,3.775,0,0,1-1.644-1.562A3.982,3.982,0,0,1,264.9,32.2a4.46,4.46,0,0,1,.575-2.384l1.48.329a5.65,5.65,0,0,0-.411,1.973,2.81,2.81,0,0,0,.74,2.137,4.224,4.224,0,0,0,4.768-.164,3.864,3.864,0,0,0,.658-2.713V24.968a3.631,3.631,0,0,0-.74-2.548,2.937,2.937,0,0,0-2.137-.74c-1.891,0-2.795.822-2.795,2.548a5.3,5.3,0,0,0,.247,1.644l-1.562.329a4.968,4.968,0,0,1-.411-1.973,3.8,3.8,0,0,1,.658-2.055,5.729,5.729,0,0,1,1.644-1.48,4.894,4.894,0,0,1,2.219-.493c.658.329,1.4.493,2.137.822" transform="translate(-92.236 -20.2)" fill="#6d6e70"/>
      <path id="Path_17161" data-name="Path 17161" d="M280.393,24.563a3.345,3.345,0,0,1,.658-1.973,4.53,4.53,0,0,1,1.644-1.4,4.877,4.877,0,0,1,4.275,0,4.529,4.529,0,0,1,1.644,1.4,3.409,3.409,0,0,1,.658,2.055,3.826,3.826,0,0,1-.658,2.3,3.841,3.841,0,0,1-1.973,1.069,3.747,3.747,0,0,1,2.219,1.233,4.29,4.29,0,0,1,.822,2.877,4.405,4.405,0,0,1-1.315,3.452,5.005,5.005,0,0,1-3.535,1.233,6.4,6.4,0,0,1-2.548-.493,4.2,4.2,0,0,1-1.726-1.4,3.6,3.6,0,0,1-.658-2.055,5.652,5.652,0,0,1,.411-1.973l1.48.329a5.7,5.7,0,0,0-.247,1.644,2.427,2.427,0,0,0,.74,1.973,3.851,3.851,0,0,0,2.466.658,3.4,3.4,0,0,0,2.466-.74,3.5,3.5,0,0,0,.74-2.548,3.922,3.922,0,0,0-.74-2.548,3.005,3.005,0,0,0-2.384-.822h-.822v-1.4h.822a2.8,2.8,0,0,0,2.055-.575,2.707,2.707,0,0,0,.658-1.973A2.359,2.359,0,0,0,286.8,23a3,3,0,0,0-1.973-.658q-2.713,0-2.713,2.466a5.55,5.55,0,0,0,.164,1.151l-1.562.329a6.028,6.028,0,0,1-.329-1.726" transform="translate(-94.905 -20.265)" fill="#6d6e70"/>
      <path id="Path_17162" data-name="Path 17162" d="M300.325,20.8v.658a7.567,7.567,0,0,0,.164,1.562,3.48,3.48,0,0,0,.493,1.151c.247.329.575.822,1.069,1.48.575.74.986,1.315,1.315,1.808a6.8,6.8,0,0,1,.74,1.726,11.135,11.135,0,0,1,.246,2.548,5.731,5.731,0,0,1-.575,2.713,4.746,4.746,0,0,1-1.644,1.726,4.965,4.965,0,0,1-2.466.575,4.646,4.646,0,0,1-3.452-1.315,5.118,5.118,0,0,1-1.315-3.617,6.309,6.309,0,0,1,1.069-3.7l1.315.493a4.048,4.048,0,0,0-.493,1.4,5.891,5.891,0,0,0-.164,1.808,3.727,3.727,0,0,0,.74,2.63,3.112,3.112,0,0,0,2.3.822,3,3,0,0,0,2.384-.822,4.216,4.216,0,0,0,.74-2.795,12.951,12.951,0,0,0-.164-2.055,5.5,5.5,0,0,0-.575-1.4c-.247-.411-.658-.9-1.151-1.562a8.639,8.639,0,0,1-1.233-1.726,11.639,11.639,0,0,1-.658-1.48,6.162,6.162,0,0,1-.164-1.808v-.658h1.48Z" transform="translate(-97.574 -20.285)" fill="#6d6e70"/>
    </g>
  </g>
</svg>
