<svg xmlns="http://www.w3.org/2000/svg" width="115.131" height="27.992" viewBox="0 0 115.131 27.992">
  <g id="ქართ-01" transform="translate(0.5 0.5)">
    <g id="Group_5" data-name="Group 5" transform="translate(35.202 1.762)">
      <g id="Group_1" data-name="Group 1" transform="translate(0 0)">
        <path id="Path_28" data-name="Path 28" d="M442.091,150.944a4.566,4.566,0,0,0-.3,1.294V153.3a6.354,6.354,0,0,0,.164,1.525,2.769,2.769,0,0,0,.533,1.109,2.3,2.3,0,0,0,.964.678,4.089,4.089,0,0,0,1.473.231,4.2,4.2,0,0,0,1.4-.208,2.158,2.158,0,0,0,.972-.678,3.091,3.091,0,0,0,.572-1.217,7.594,7.594,0,0,0,.188-1.826V151.3a5.236,5.236,0,0,0-.266-1.7,7.09,7.09,0,0,0-.689-1.456,9.2,9.2,0,0,0-.971-1.287q-.548-.608-1.112-1.194-.643-.662-1.253-1.348a10.48,10.48,0,0,1-1.089-1.457,7.479,7.479,0,0,1-.768-1.68,6.621,6.621,0,0,1-.29-2.018v-2.5H445.1v2.5a3.475,3.475,0,0,0,.227,1.255,5.421,5.421,0,0,0,.611,1.148,10.17,10.17,0,0,0,.878,1.094q.493.539,1.011,1.094v-.016q.706.74,1.395,1.518a11.579,11.579,0,0,1,1.238,1.687,9.407,9.407,0,0,1,.893,1.98,7.736,7.736,0,0,1,.345,2.38v1.71q0,7.119-6.769,7.118a7.325,7.325,0,0,1-2.938-.547,6.016,6.016,0,0,1-2.115-1.494,6.327,6.327,0,0,1-1.285-2.2,8.116,8.116,0,0,1-.431-2.666v-.986a3.922,3.922,0,0,1,.157-1.055,6.873,6.873,0,0,1,.439-1.148" transform="translate(-438.16 -136.66)" fill="#dedfe4"/>
      </g>
      <g id="Group_2" data-name="Group 2" transform="translate(14.442 0)">
        <path id="Path_29" data-name="Path 29" d="M652.084,150.859A12.239,12.239,0,0,0,653.373,149a9.92,9.92,0,0,0,.818-1.864,5.427,5.427,0,0,0,.286-1.6v-1.787a6.2,6.2,0,0,0-.177-1.556,3.529,3.529,0,0,0-.494-1.132,2.179,2.179,0,0,0-.741-.686,1.862,1.862,0,0,0-.9-.231,2.793,2.793,0,0,0-1.259.246,1.9,1.9,0,0,0-.764.686,2.784,2.784,0,0,0-.379,1.024,7.466,7.466,0,0,0-.1,1.263v4.3H646.23v-4.3a9.248,9.248,0,0,0-.085-1.271,3.444,3.444,0,0,0-.317-1.07,1.879,1.879,0,0,0-.648-.739,1.951,1.951,0,0,0-1.1-.277,1.794,1.794,0,0,0-1.027.277,2.031,2.031,0,0,0-.657.739,3.6,3.6,0,0,0-.355,1.047,6.593,6.593,0,0,0-.108,1.2v4.39h-3.459v-4.39q0-.6-.054-1.171a2.622,2.622,0,0,0-.285-1,1.707,1.707,0,0,0-.718-.693,2.877,2.877,0,0,0-1.351-.262,1.794,1.794,0,0,0-1.081.323,2.507,2.507,0,0,0-.742.878,4.395,4.395,0,0,0-.425,1.3,9.229,9.229,0,0,0-.131,1.595l.031,1.972a7.529,7.529,0,0,0,.51,2.85,8.454,8.454,0,0,0,1.49,2.457,11.083,11.083,0,0,0,2.309,2,15.052,15.052,0,0,0,2.973,1.5,19.059,19.059,0,0,0,3.49.94,22.459,22.459,0,0,0,3.853.323h2.841v3.574h-2.778a25.79,25.79,0,0,1-5.444-.539,21.149,21.149,0,0,1-4.517-1.486,16.066,16.066,0,0,1-3.559-2.241,14.376,14.376,0,0,1-2.587-2.811,12.336,12.336,0,0,1-1.6-3.188,11.413,11.413,0,0,1-.579-3.366l-.016-2.064a11.5,11.5,0,0,1,.348-2.9,6.738,6.738,0,0,1,1.073-2.326,5.082,5.082,0,0,1,1.853-1.548,5.959,5.959,0,0,1,2.687-.562,5.264,5.264,0,0,1,1.266.146,3.833,3.833,0,0,1,1.1.462,5.037,5.037,0,0,1,.965.786,8.007,8.007,0,0,1,.888,1.116,5.951,5.951,0,0,1,1.591-1.956,3.542,3.542,0,0,1,2.208-.693,3.662,3.662,0,0,1,2.2.686,6.3,6.3,0,0,1,1.69,1.933,6.542,6.542,0,0,1,1.969-1.856,4.3,4.3,0,0,1,2.185-.624,6.108,6.108,0,0,1,2.34.447,5.315,5.315,0,0,1,1.892,1.309,6.225,6.225,0,0,1,1.266,2.125,8.372,8.372,0,0,1,.464,2.9v2.064a6.483,6.483,0,0,1-.186,1.448,11.622,11.622,0,0,1-.525,1.656,14.606,14.606,0,0,1-.826,1.725,14.406,14.406,0,0,1-1.073,1.648,5.273,5.273,0,0,1-.833,1" transform="translate(-630.11 -136.69)" fill="#dedfe4"/>
      </g>
      <g id="Group_3" data-name="Group 3" transform="translate(43.325 0)">
        <path id="Path_30" data-name="Path 30" d="M1017.737,154.057a5.245,5.245,0,0,1-.657,2.666,5.509,5.509,0,0,1-1.831,1.9,8.83,8.83,0,0,1-2.786,1.132,15.361,15.361,0,0,1-3.506.377q-1.206,0-2.348-.1a13.28,13.28,0,0,1-2.161-.362,8.189,8.189,0,0,1-1.87-.725,5.083,5.083,0,0,1-1.471-1.194,5.208,5.208,0,0,1-.955-1.764,7.6,7.6,0,0,1-.321-2.435l3.585.693a2.506,2.506,0,0,0,.243,1.171,2.1,2.1,0,0,0,.657.755,2.876,2.876,0,0,0,.971.432,7.528,7.528,0,0,0,1.174.193q.618.054,1.26.054h1.237a13.088,13.088,0,0,0,1.933-.139,6.169,6.169,0,0,0,1.644-.462,3.028,3.028,0,0,0,1.143-.863,2.059,2.059,0,0,0,.431-1.325V153.3a6.06,6.06,0,0,0-.086-.971,3.683,3.683,0,0,0-.3-.971,2.172,2.172,0,0,0-.571-.748,1.4,1.4,0,0,0-.924-.3H1010.9v-3.282h1.331a1.781,1.781,0,0,0,.995-.27,2.21,2.21,0,0,0,.681-.7,3.384,3.384,0,0,0,.4-.978,4.654,4.654,0,0,0,.133-1.1v-.739a10.1,10.1,0,0,0-.086-1.394,2.4,2.4,0,0,0-.368-1.025,1.747,1.747,0,0,0-.814-.632,3.824,3.824,0,0,0-1.409-.216,2.14,2.14,0,0,0-1.119.277,2.077,2.077,0,0,0-.743.77,3.7,3.7,0,0,0-.407,1.171,8.072,8.072,0,0,0-.125,1.464v1.525a9.215,9.215,0,0,1-.392,2.743,6.032,6.032,0,0,1-1.189,2.188,5.45,5.45,0,0,1-2.027,1.448,8.143,8.143,0,0,1-5.643.038,5.45,5.45,0,0,1-2.027-1.387,5.966,5.966,0,0,1-1.245-2.173,9.031,9.031,0,0,1-.422-2.858v-1.325a9.744,9.744,0,0,1,.461-3.151,6.17,6.17,0,0,1,1.307-2.25,5.308,5.308,0,0,1,2.034-1.348,7.783,7.783,0,0,1,3.89-.34,5.875,5.875,0,0,1,1.237.355,5.1,5.1,0,0,1,1.159.67,5.457,5.457,0,0,1,1.025,1.04,4.722,4.722,0,0,1,.955-1.1,4.558,4.558,0,0,1,1.064-.662,4.43,4.43,0,0,1,1.1-.323,7.285,7.285,0,0,1,1.1-.085,8.063,8.063,0,0,1,2.833.447,5.073,5.073,0,0,1,1.965,1.279,5.208,5.208,0,0,1,1.15,2.034,9.077,9.077,0,0,1,.375,2.712v.693a9.855,9.855,0,0,1-.086,1.264,5.119,5.119,0,0,1-.345,1.294,4.7,4.7,0,0,1-.743,1.217,4.639,4.639,0,0,1-1.3,1.048,3.919,3.919,0,0,1,1.159.948,4.078,4.078,0,0,1,.642,1.125,4.691,4.691,0,0,1,.274,1.217q.055.624.055,1.225v.893Zm-12.022-10.2a8.139,8.139,0,0,0-.18-1.857,3.091,3.091,0,0,0-.54-1.2,1.929,1.929,0,0,0-.892-.639,3.774,3.774,0,0,0-1.237-.185,4.188,4.188,0,0,0-1.229.162,1.837,1.837,0,0,0-.884.593,2.865,2.865,0,0,0-.54,1.187,8.609,8.609,0,0,0-.18,1.941v1.325a7.432,7.432,0,0,0,.172,1.764,2.57,2.57,0,0,0,.524,1.086,1.824,1.824,0,0,0,.885.555,4.533,4.533,0,0,0,1.252.154,3.834,3.834,0,0,0,1.394-.216,1.9,1.9,0,0,0,.869-.662,2.836,2.836,0,0,0,.454-1.109,8.1,8.1,0,0,0,.133-1.571v-1.326Z" transform="translate(-996.42 -136.66)" fill="#dedfe4"/>
      </g>
      <g id="Group_4" data-name="Group 4" transform="translate(65.89 0)">
        <path id="Path_31" data-name="Path 31" d="M1287.912,150.944a4.573,4.573,0,0,0-.3,1.294V153.3a6.327,6.327,0,0,0,.164,1.525,2.765,2.765,0,0,0,.533,1.109,2.3,2.3,0,0,0,.964.678,4.09,4.09,0,0,0,1.473.231,4.2,4.2,0,0,0,1.4-.208,2.16,2.16,0,0,0,.972-.678,3.092,3.092,0,0,0,.572-1.217,7.587,7.587,0,0,0,.189-1.826V151.3a5.216,5.216,0,0,0-.267-1.7,7.091,7.091,0,0,0-.69-1.456,9.192,9.192,0,0,0-.971-1.287q-.549-.608-1.112-1.194-.643-.662-1.254-1.348a10.454,10.454,0,0,1-1.089-1.457,7.467,7.467,0,0,1-.768-1.68,6.618,6.618,0,0,1-.29-2.018v-2.5h3.479v2.5a3.474,3.474,0,0,0,.228,1.255,5.45,5.45,0,0,0,.611,1.148,10.206,10.206,0,0,0,.878,1.094q.493.539,1.011,1.094v-.016q.706.74,1.395,1.518a11.588,11.588,0,0,1,1.239,1.687,9.424,9.424,0,0,1,.893,1.98,7.763,7.763,0,0,1,.344,2.38v1.71q0,7.119-6.769,7.118a7.328,7.328,0,0,1-2.938-.547,6.024,6.024,0,0,1-2.115-1.494,6.321,6.321,0,0,1-1.285-2.2,8.107,8.107,0,0,1-.431-2.666v-.986a3.919,3.919,0,0,1,.157-1.055,6.883,6.883,0,0,1,.439-1.148" transform="translate(-1283.98 -136.66)" fill="#dedfe4"/>
      </g>
    </g>
    <g id="Group_7" data-name="Group 7" transform="translate(0)">
      <path id="Path_50" data-name="Path 50" d="M76.138,158.441H63.875a9.591,9.591,0,0,1-1.18-.072c-2.84-.359-5.065-3.225-5.065-6.523v-14.1a6.2,6.2,0,0,1,3.979-5.924,5.307,5.307,0,0,1,1.783-.369H87.416l-5.716,21.9a8.317,8.317,0,0,1-.953,2.27,5.774,5.774,0,0,1-3.837,2.762A4.628,4.628,0,0,1,76.138,158.441ZM63.4,134.43a3.079,3.079,0,0,0-.979.226,3.249,3.249,0,0,0-2.124,3.088v14.1a3.5,3.5,0,0,0,2.7,3.562,7.023,7.023,0,0,0,.882.052h12.26a2.2,2.2,0,0,0,.388-.029,3.167,3.167,0,0,0,2.033-1.524,5.3,5.3,0,0,0,.587-1.432l4.71-18.047Z" transform="translate(-57.63 -131.45)" fill="#dedfe4" stroke="#dedfe4" stroke-width="1"/>
    </g>
  </g>
</svg>
