<svg xmlns="http://www.w3.org/2000/svg" width="102.977" height="37" viewBox="0 0 102.977 37">
  <g id="logo" transform="translate(-42 -48)">
    <path id="Path_7537" data-name="Path 7537" d="M0,0H37V37H0Z" transform="translate(42 48)" fill="#dedfe4"/>
    <path id="Path_7536" data-name="Path 7536" d="M690.734,503.9l-2.332,5.317,8.909,20.054h5.019Zm.733,16.929a12.507,12.507,0,0,0-7.6,8.442H679.61a10.1,10.1,0,0,1,11.858-8.442Z" transform="translate(-630.707 -450.427)" fill="#fff"/>
    <path id="Path_7569" data-name="Path 7569" d="M336.309,109.1a5.433,5.433,0,0,0-5.409,5.424v12.831h1.352a1.172,1.172,0,0,0,1.168-1.178V114.493a2.874,2.874,0,1,1,5.747,0v11.684a1.172,1.172,0,0,0,1.168,1.178h1.352v-12.8a5.414,5.414,0,0,0-5.378-5.455Z" transform="translate(-196.711 -51.489)" fill="#dedfe4"/>
    <path id="Path_7570" data-name="Path 7570" d="M256.725,121.225v6.2h-.983a1.515,1.515,0,0,1-1.506-1.519v-4.68a2.9,2.9,0,0,0-2.889-2.913h-.123a4.52,4.52,0,0,0-2.735,1.085V125.9a1.515,1.515,0,0,1-1.506,1.519H246V109.2h.768a1.725,1.725,0,0,1,1.721,1.736v5.672a1.29,1.29,0,0,0,.369-.217,5.365,5.365,0,0,1,7.867,4.835Z" transform="translate(-138.179 -51.558)" fill="#dedfe4"/>
    <path id="Path_7571" data-name="Path 7571" d="M209.867,121.753a2.891,2.891,0,1,1-5.777,0h0V118.9a1.646,1.646,0,0,0-1.629-1.642h-.86v4.524a5.394,5.394,0,1,0,10.787,0V118.9c0-5.547-2.643-7.1-6.177-9.452-.522-.341-.738-.5-1.014-.651v1.952c0,.775.369,1.147,1.045,1.7,2.458,1.89,3.626,2.758,3.626,6.446Z" transform="translate(-107.569 -51.281)" fill="#dedfe4"/>
    <path id="Path_7572" data-name="Path 7572" d="M294.162,109.1a5.551,5.551,0,0,0-5.562,5.547V117.4c0,5.547,2.612,7.1,6.177,9.452.522.341.738.5,1.014.651v-1.952c0-.806-.369-1.147-1.045-1.7-1.567-1.209-2.581-1.983-3.135-3.316a5.627,5.627,0,0,0,2.458.651,5.472,5.472,0,0,0,5.47-5.454v-1.209A5.509,5.509,0,0,0,294.162,109.1Zm2.827,6.694v.155a2.9,2.9,0,0,1-2.95,2.758,4.763,4.763,0,0,1-2.95-1.085v-3.1a2.95,2.95,0,0,1,5.9,0Z" transform="translate(-167.547 -51.486)" fill="#dedfe4"/>
  </g>
</svg>
