<svg xmlns="http://www.w3.org/2000/svg" width="211" height="33" viewBox="0 0 211 33">
  <g id="logo-ka" transform="translate(-0.068 -0.033)">
    <path id="Path_17146" data-name="Path 17146" d="M77.4,21.741a5.425,5.425,0,0,1,1.034,3.586V28.5a13.662,13.662,0,0,1-.965,5.241H74.848a16.725,16.725,0,0,0,.9-5.241V25.327A4.377,4.377,0,0,0,75.4,23.4a1.345,1.345,0,0,0-1.241-.552,1.515,1.515,0,0,0-1.241.552,3.573,3.573,0,0,0-.345,1.931v3.655A5.352,5.352,0,0,1,71.4,32.706a4.486,4.486,0,0,1-3.448,1.241,4.325,4.325,0,0,1-3.379-1.241A5.352,5.352,0,0,1,63.4,28.982V25.465a5.461,5.461,0,0,1,1.1-3.724,4.9,4.9,0,0,1,5.379-.759,2.7,2.7,0,0,1,1.172,1.448,3.019,3.019,0,0,1,1.31-1.448,4.579,4.579,0,0,1,2.069-.483A3.829,3.829,0,0,1,77.4,21.741m-7.655,3.793a4.63,4.63,0,0,0-.207-1.586,1.473,1.473,0,0,0-.552-.828,2.35,2.35,0,0,0-1.1-.276,1.431,1.431,0,0,0-1.034.276,1.267,1.267,0,0,0-.552.828,5.189,5.189,0,0,0-.138,1.586v3.517a8.375,8.375,0,0,0,.138,1.586,1.473,1.473,0,0,0,.552.828,2.285,2.285,0,0,0,1.034.276,1.75,1.75,0,0,0,1.1-.276,1.266,1.266,0,0,0,.552-.828,4.908,4.908,0,0,0,.207-1.586Z" transform="translate(-19.713 -6.651)" fill="#dedfe4"/>
    <path id="Path_17147" data-name="Path 17147" d="M96.793,21.869a5.352,5.352,0,0,1,1.172,3.724v3.034A13.662,13.662,0,0,1,97,33.868H94.31a16.725,16.725,0,0,0,.9-5.241V25.662a8.374,8.374,0,0,0-.138-1.586,1.473,1.473,0,0,0-.552-.828,2.285,2.285,0,0,0-1.034-.276,1.541,1.541,0,0,0-1.034.276,1.267,1.267,0,0,0-.552.828,5.189,5.189,0,0,0-.138,1.586v2.965a15.343,15.343,0,0,0,.9,5.31h-2.69A14.182,14.182,0,0,1,89,28.7V25.662a5.352,5.352,0,0,1,1.172-3.724A4.325,4.325,0,0,1,93.551,20.7a3.942,3.942,0,0,1,3.241,1.172" transform="translate(-27.679 -6.71)" fill="#dedfe4"/>
    <path id="Path_17148" data-name="Path 17148" d="M114.3,29.865c0,2.827-1.517,4.276-4.551,4.276s-4.551-1.448-4.551-4.276c0-2.483,1.172-3.931,3.448-4.207V24.9a1.165,1.165,0,0,0-.207-.69,7.649,7.649,0,0,0-.759-.759,4.5,4.5,0,0,1-.552-.483,1.386,1.386,0,0,1-.276-.552,3.061,3.061,0,0,1-.138-.9V20.9h2.827v.276a.843.843,0,0,0,.207.621,7.687,7.687,0,0,0,.69.621,3.375,3.375,0,0,1,.828.9,2.667,2.667,0,0,1,.276,1.172v1.241c1.793.483,2.758,1.862,2.758,4.138m-3.241,1.517a2.429,2.429,0,0,0,.414-1.586,2.562,2.562,0,0,0-.414-1.586,1.685,1.685,0,0,0-1.379-.483,1.535,1.535,0,0,0-1.31.483,2.429,2.429,0,0,0-.414,1.586,2.562,2.562,0,0,0,.414,1.586,1.622,1.622,0,0,0,1.31.483,1.6,1.6,0,0,0,1.379-.483" transform="translate(-32.721 -6.778)" fill="#dedfe4"/>
    <path id="Path_17149" data-name="Path 17149" d="M129.693,21.869a5.352,5.352,0,0,1,1.172,3.724v3.034a13.663,13.663,0,0,1-.965,5.241h-2.69a16.725,16.725,0,0,0,.9-5.241V25.662a8.375,8.375,0,0,0-.138-1.586,1.473,1.473,0,0,0-.552-.828,2.285,2.285,0,0,0-1.034-.276,1.541,1.541,0,0,0-1.034.276,1.266,1.266,0,0,0-.552.828,5.189,5.189,0,0,0-.138,1.586v2.965a15.343,15.343,0,0,0,.9,5.31h-2.69A14.182,14.182,0,0,1,121.9,28.7V25.662a5.352,5.352,0,0,1,1.172-3.724,4.325,4.325,0,0,1,3.379-1.241,4.028,4.028,0,0,1,3.241,1.172" transform="translate(-37.919 -6.71)" fill="#dedfe4"/>
    <path id="Path_17150" data-name="Path 17150" d="M138.6,20.8h2.758v8.965a2.086,2.086,0,0,0,.483,1.586,2.414,2.414,0,0,0,2.9,0,2.41,2.41,0,0,0,.483-1.586,3.461,3.461,0,0,0-.138-.828,3.364,3.364,0,0,0-.414-.9c-.207-.414-.345-.828-.483-1.1a5.36,5.36,0,0,1-.138-1.1v-.276h2.758a4.07,4.07,0,0,0,.138.965,5.32,5.32,0,0,0,.414,1.034c.207.483.345.9.483,1.172a4.8,4.8,0,0,1,.138,1.1c0,2.827-1.586,4.276-4.689,4.276s-4.689-1.448-4.689-4.276Z" transform="translate(-43.116 -6.747)" fill="#dedfe4"/>
    <path id="Path_17151" data-name="Path 17151" d="M163.293,21.869a5.352,5.352,0,0,1,1.172,3.724v3.034a13.662,13.662,0,0,1-.965,5.241H160.81a16.726,16.726,0,0,0,.9-5.241V25.662a8.375,8.375,0,0,0-.138-1.586,1.473,1.473,0,0,0-.552-.828,2.285,2.285,0,0,0-1.034-.276,1.541,1.541,0,0,0-1.034.276,1.267,1.267,0,0,0-.552.828,5.189,5.189,0,0,0-.138,1.586v2.965a15.342,15.342,0,0,0,.9,5.31h-2.69A14.182,14.182,0,0,1,155.5,28.7V25.662a5.352,5.352,0,0,1,1.172-3.724,4.325,4.325,0,0,1,3.379-1.241,3.942,3.942,0,0,1,3.241,1.172" transform="translate(-48.376 -6.71)" fill="#dedfe4"/>
    <path id="Path_17152" data-name="Path 17152" d="M16.641,18.307c.138,1.564.207,2.381-1.034,3.673A41.973,41.973,0,0,1,7.538,27.83a31.183,31.183,0,0,1-4.827,2.313c-1.1.408-2,.544-2.483-.2a1.566,1.566,0,0,1,0-1.36C1.4,25.449,4.78,19.464,7.056,15.655c.207-.408.483-.816.69-1.224,3.448-5.849,8-12.991,8.9-14.147.138-.136.345-.34.552-.2.207.068.207.34.138.476a1.367,1.367,0,0,0-.069.34,47.816,47.816,0,0,0-.621,17.412" transform="translate(0 0)" fill="#dedfe4"/>
    <path id="Path_17153" data-name="Path 17153" d="M29.662,20.153c-1.448-.68-2.207-.952-2.758-2.72a41.071,41.071,0,0,1-1.1-9.858,33.181,33.181,0,0,1,.345-5.3C26.352,1.116,26.7.3,27.593.3a1.393,1.393,0,0,1,1.172.68c2.207,2.584,5.655,8.5,7.931,12.306.207.408.483.816.69,1.224,3.448,5.847,7.448,13.326,8,14.685.069.2.138.476-.069.612a.573.573,0,0,1-.483-.068s-.207-.136-.207-.2c-4.414-4.283-9.586-7.071-14.965-9.382" transform="translate(-7.986 -0.083)" fill="#dedfe4"/>
    <path id="Path_17154" data-name="Path 17154" d="M18.075,34c1.31-.9,1.931-1.379,3.793-.965a45.421,45.421,0,0,1,9.172,4,30.017,30.017,0,0,1,4.483,3.034c.9.759,1.517,1.448,1.034,2.276a1.541,1.541,0,0,1-1.241.69c-3.379.552-10.275.621-14.827.621H19.109c-6.827,0-15.378-.345-16.827-.552a.456.456,0,0,1-.483-.414.369.369,0,0,1,.345-.345,1.4,1.4,0,0,1,.345-.069c5.862-1.655,10.9-4.758,15.585-8.275" transform="translate(-0.537 -10.619)" fill="#dedfe4"/>
    <path id="Path_17155" data-name="Path 17155" d="M185.255,28.186a3.586,3.586,0,0,1-1.379-1.31,3.834,3.834,0,0,1-.483-2.069v-.276a2.863,2.863,0,0,0-.552-2.069,1.979,1.979,0,0,0-1.586-.621,2,2,0,0,0-1.655.759,4.393,4.393,0,0,0-.552,2.483,4.222,4.222,0,0,0,1.172,3.241,7.52,7.52,0,0,0,3.655,1.655,6.677,6.677,0,0,1,2.827,1.31,2.934,2.934,0,0,1,1.172,2.552H186.5a2.226,2.226,0,0,0-.552-1.448,3.2,3.2,0,0,0-1.379-.9,5.265,5.265,0,0,0-1.862-.345,5.376,5.376,0,0,0-2.827.69l-.483-.965a5.583,5.583,0,0,1,.9-.414,3.43,3.43,0,0,1,1.1-.207,5.227,5.227,0,0,1-1.793-.828,5.508,5.508,0,0,1-1.448-1.793,6.03,6.03,0,0,1-.552-2.552,5.2,5.2,0,0,1,.965-3.379,3.2,3.2,0,0,1,2.621-1.1,2.9,2.9,0,0,1,1.793.483,2.814,2.814,0,0,1,1.034,1.448,2.586,2.586,0,0,1,1.1-1.448,3.742,3.742,0,0,1,2-.483,3.638,3.638,0,0,1,2.69,1.034,4.149,4.149,0,0,1,1.034,3.034,4.256,4.256,0,0,1-.483,2.138,2.971,2.971,0,0,1-1.379,1.379,3.656,3.656,0,0,1-1.931.483,4.659,4.659,0,0,1-1.793-.483m3.724-1.448A3.165,3.165,0,0,0,189.6,24.6a3.046,3.046,0,0,0-.621-2.138,2.552,2.552,0,0,0-1.862-.69,2.068,2.068,0,0,0-1.793.69,3.058,3.058,0,0,0-.552,2.138,3.457,3.457,0,0,0,.552,2.138,2.44,2.44,0,0,0,1.862.69,2.068,2.068,0,0,0,1.793-.69" transform="translate(-55.258 -6.681)" fill="#dedfe4"/>
    <path id="Path_17156" data-name="Path 17156" d="M203.351,20.8v.552a6.348,6.348,0,0,0,.138,1.31,2.921,2.921,0,0,0,.414.965c.207.276.483.69.9,1.241.483.621.828,1.1,1.1,1.517a5.7,5.7,0,0,1,.621,1.448,9.337,9.337,0,0,1,.207,2.138,4.808,4.808,0,0,1-.483,2.276,3.983,3.983,0,0,1-1.379,1.448,4.165,4.165,0,0,1-2.069.483,3.9,3.9,0,0,1-2.9-1.1,4.294,4.294,0,0,1-1.1-3.034,5.293,5.293,0,0,1,.9-3.1l1.1.414a3.4,3.4,0,0,0-.414,1.172,4.94,4.94,0,0,0-.138,1.517,3.126,3.126,0,0,0,.621,2.207,2.611,2.611,0,0,0,1.931.69,2.521,2.521,0,0,0,2-.69,3.537,3.537,0,0,0,.621-2.345,10.859,10.859,0,0,0-.138-1.724,4.614,4.614,0,0,0-.483-1.172c-.207-.345-.552-.759-.965-1.31a7.248,7.248,0,0,1-1.034-1.448,9.767,9.767,0,0,1-.552-1.241,5.171,5.171,0,0,1-.138-1.517v-.552h1.241Z" transform="translate(-61.852 -6.748)" fill="#dedfe4"/>
    <path id="Path_17157" data-name="Path 17157" d="M218.3,25.634a3.238,3.238,0,0,1,1.793.552,3.19,3.19,0,0,1,1.241,1.448,5.136,5.136,0,0,1,.483,2.138,4.44,4.44,0,0,1-1.034,3.1,3.754,3.754,0,0,1-2.965,1.1,4.165,4.165,0,0,1-2.069-.483,3.657,3.657,0,0,1-1.448-1.448,4.628,4.628,0,0,1-.552-2.276,4.526,4.526,0,0,1,.759-2.621,3.987,3.987,0,0,1-1.586-1.241,3.083,3.083,0,0,1-.621-1.931,3.039,3.039,0,0,1,.483-1.793,2.565,2.565,0,0,1,1.241-1.172,3.465,3.465,0,0,1,1.655-.414,3.2,3.2,0,0,1,1.586.414,2.937,2.937,0,0,1,1.586,2.69,2.44,2.44,0,0,1-1.1,2.069,3.1,3.1,0,0,1,.552-.138m-4.276-.276a4.455,4.455,0,0,0,1.172,1.034,3.506,3.506,0,0,1,.9-.621,2.293,2.293,0,0,0,.965-.828A1.882,1.882,0,0,0,217.4,23.7a2.012,2.012,0,0,0-.483-1.517,1.717,1.717,0,0,0-1.31-.483,1.943,1.943,0,0,0-1.448.483,2.266,2.266,0,0,0-.483,1.655,2.9,2.9,0,0,0,.345,1.517m5.724,6.758a3.537,3.537,0,0,0,.621-2.345,3.537,3.537,0,0,0-.621-2.345,3.245,3.245,0,0,0-4,0,3.537,3.537,0,0,0-.621,2.345,3.537,3.537,0,0,0,.621,2.345,2.521,2.521,0,0,0,2,.69,2.79,2.79,0,0,0,2-.69" transform="translate(-66.055 -6.683)" fill="#dedfe4"/>
    <path id="Path_17158" data-name="Path 17158" d="M230.721,30.255a7.617,7.617,0,0,1,1.1-.207,4.541,4.541,0,0,1-2.621-1.586,4.825,4.825,0,0,1-1.1-3.448,5.118,5.118,0,0,1,.965-3.31,3.294,3.294,0,0,1,2.621-1.1,3.541,3.541,0,0,1,1.724.414,2.391,2.391,0,0,1,1.1,1.517,2.789,2.789,0,0,1,2.9-1.931,3.226,3.226,0,0,1,2.552,1.034,4.445,4.445,0,0,1,.965,3.034,9.181,9.181,0,0,1-1.034,4.138l-1.241-.345a7.336,7.336,0,0,0,.621-1.724,8.489,8.489,0,0,0,.207-2,3.938,3.938,0,0,0-.552-2.276,2.066,2.066,0,0,0-1.655-.69,1.875,1.875,0,0,0-1.655.69,4.1,4.1,0,0,0-.483,2.345v1.517h-1.379V24.807a3.958,3.958,0,0,0-.483-2.345,1.875,1.875,0,0,0-1.655-.69,2,2,0,0,0-1.655.759,4.393,4.393,0,0,0-.552,2.483,5.091,5.091,0,0,0,.552,2.483,3.262,3.262,0,0,0,1.517,1.379,9.226,9.226,0,0,0,2.552.828,7,7,0,0,1,2.689,1.31,3.307,3.307,0,0,1,1.1,2.758h-1.379a2.5,2.5,0,0,0-1.034-2.138,4.526,4.526,0,0,0-2.621-.759,10.364,10.364,0,0,0-1.379.138,7.353,7.353,0,0,0-1.31.483l-.483-.965c.414-.069.759-.207,1.1-.276" transform="translate(-70.976 -6.68)" fill="#dedfe4"/>
    <path id="Path_17159" data-name="Path 17159" d="M249.914,23.941a2.408,2.408,0,0,1,.552-1.655,3.8,3.8,0,0,1,1.379-1.172,4.092,4.092,0,0,1,3.586,0,3.8,3.8,0,0,1,1.379,1.172,2.86,2.86,0,0,1,.552,1.724,3.21,3.21,0,0,1-.552,1.931,3.223,3.223,0,0,1-1.655.9,3.143,3.143,0,0,1,1.862,1.034,3.6,3.6,0,0,1,.69,2.414,3.7,3.7,0,0,1-1.1,2.9,4.2,4.2,0,0,1-2.965,1.034A5.372,5.372,0,0,1,251.5,33.8a3.52,3.52,0,0,1-1.448-1.172,3.018,3.018,0,0,1-.552-1.724,4.74,4.74,0,0,1,.345-1.655l1.241.276a4.778,4.778,0,0,0-.207,1.379,2.036,2.036,0,0,0,.621,1.655,3.231,3.231,0,0,0,2.069.552,2.854,2.854,0,0,0,2.069-.621,2.932,2.932,0,0,0,.621-2.138,3.29,3.29,0,0,0-.621-2.138,2.521,2.521,0,0,0-2-.69h-.69V26.355h.69a2.346,2.346,0,0,0,1.724-.483,2.271,2.271,0,0,0,.552-1.655,1.979,1.979,0,0,0-.621-1.586,2.516,2.516,0,0,0-1.655-.552q-2.276,0-2.276,2.069a4.656,4.656,0,0,0,.138.965l-1.31.276a5.058,5.058,0,0,1-.276-1.448" transform="translate(-77.67 -6.717)" fill="#dedfe4"/>
    <path id="Path_17160" data-name="Path 17160" d="M270.831,20.89a3.778,3.778,0,0,1,1.379,1.379,3.842,3.842,0,0,1,.552,2.069v5.517a3.977,3.977,0,0,1-1.034,2.965,3.916,3.916,0,0,1-2.9,1.034,4.165,4.165,0,0,1-2.069-.483,3.167,3.167,0,0,1-1.379-1.31,3.341,3.341,0,0,1-.483-1.793,3.742,3.742,0,0,1,.483-2l1.241.276a4.74,4.74,0,0,0-.345,1.655,2.357,2.357,0,0,0,.621,1.793,3.544,3.544,0,0,0,4-.138,3.241,3.241,0,0,0,.552-2.276V24.2a3.046,3.046,0,0,0-.621-2.138,2.464,2.464,0,0,0-1.793-.621c-1.586,0-2.345.69-2.345,2.138a4.448,4.448,0,0,0,.207,1.379l-1.31.276a4.167,4.167,0,0,1-.345-1.655,3.19,3.19,0,0,1,.552-1.724,4.806,4.806,0,0,1,1.379-1.241,4.106,4.106,0,0,1,1.862-.414c.552.276,1.172.414,1.793.69" transform="translate(-82.45 -6.557)" fill="#dedfe4"/>
    <path id="Path_17161" data-name="Path 17161" d="M280.314,23.941a2.806,2.806,0,0,1,.552-1.655,3.8,3.8,0,0,1,1.379-1.172,4.092,4.092,0,0,1,3.586,0,3.8,3.8,0,0,1,1.379,1.172,2.86,2.86,0,0,1,.552,1.724,3.21,3.21,0,0,1-.552,1.931,3.223,3.223,0,0,1-1.655.9,3.143,3.143,0,0,1,1.862,1.034,3.6,3.6,0,0,1,.69,2.414,3.7,3.7,0,0,1-1.1,2.9,4.2,4.2,0,0,1-2.965,1.034A5.373,5.373,0,0,1,281.9,33.8a3.52,3.52,0,0,1-1.448-1.172,3.018,3.018,0,0,1-.552-1.724,4.741,4.741,0,0,1,.345-1.655l1.241.276a4.778,4.778,0,0,0-.207,1.379,2.036,2.036,0,0,0,.621,1.655,3.231,3.231,0,0,0,2.069.552,2.854,2.854,0,0,0,2.069-.621,2.932,2.932,0,0,0,.621-2.138,3.29,3.29,0,0,0-.621-2.138,2.521,2.521,0,0,0-2-.69h-.69V26.355h.69a2.346,2.346,0,0,0,1.724-.483,2.271,2.271,0,0,0,.552-1.655,1.979,1.979,0,0,0-.621-1.586,2.516,2.516,0,0,0-1.655-.552q-2.276,0-2.276,2.069a4.656,4.656,0,0,0,.138.965l-1.31.276a5.058,5.058,0,0,1-.276-1.448" transform="translate(-87.106 -6.717)" fill="#dedfe4"/>
    <path id="Path_17162" data-name="Path 17162" d="M299.451,20.8v.552a6.347,6.347,0,0,0,.138,1.31,2.92,2.92,0,0,0,.414.965c.207.276.483.69.9,1.241.483.621.828,1.1,1.1,1.517a5.705,5.705,0,0,1,.621,1.448,9.339,9.339,0,0,1,.207,2.138,4.807,4.807,0,0,1-.483,2.276,3.982,3.982,0,0,1-1.379,1.448,4.165,4.165,0,0,1-2.069.483,3.9,3.9,0,0,1-2.9-1.1,4.294,4.294,0,0,1-1.1-3.034,5.293,5.293,0,0,1,.9-3.1l1.1.414a3.4,3.4,0,0,0-.414,1.172,4.941,4.941,0,0,0-.138,1.517,3.126,3.126,0,0,0,.621,2.207,2.611,2.611,0,0,0,1.931.69,2.521,2.521,0,0,0,2-.69,3.537,3.537,0,0,0,.621-2.345,10.855,10.855,0,0,0-.138-1.724,4.612,4.612,0,0,0-.483-1.172c-.207-.345-.552-.759-.965-1.31a7.246,7.246,0,0,1-1.034-1.448,9.764,9.764,0,0,1-.552-1.241,5.171,5.171,0,0,1-.138-1.517v-.552h1.241Z" transform="translate(-91.762 -6.748)" fill="#dedfe4"/>
  </g>
</svg>
